<svg xmlns="http://www.w3.org/2000/svg" viewBox="0 0 900 600">
  <defs>
    <pattern id="scanlines5" patternUnits="userSpaceOnUse" width="2" height="2">
      <rect width="2" height="1" fill="#00ff41" opacity="0.08"/>
    </pattern>
  </defs>
  <rect width="900" height="600" fill="#0a0a1a"/>
  <rect width="900" height="600" fill="url(#scanlines5)"/>
  
  <!-- Pixel art heart -->
  <g transform="translate(450, 300)">
    <!-- Large pixel heart -->
    <rect x="-30" y="-25" width="15" height="15" fill="#ff00ff"/>
    <rect x="-15" y="-25" width="15" height="15" fill="#ff00ff"/>
    <rect x="15" y="-25" width="15" height="15" fill="#ff00ff"/>
    <rect x="30" y="-25" width="15" height="15" fill="#ff00ff"/>
    <rect x="-40" y="-10" width="15" height="15" fill="#ff00ff"/>
    <rect x="-25" y="-10" width="15" height="15" fill="#ff00ff"/>
    <rect x="-10" y="-10" width="15" height="15" fill="#ff00ff"/>
    <rect x="5" y="-10" width="15" height="15" fill="#ff00ff"/>
    <rect x="20" y="-10" width="15" height="15" fill="#ff00ff"/>
    <rect x="35" y="-10" width="15" height="15" fill="#ff00ff"/>
    <rect x="-30" y="5" width="15" height="15" fill="#ff00ff"/>
    <rect x="-15" y="5" width="15" height="15" fill="#ff00ff"/>
    <rect x="0" y="5" width="15" height="15" fill="#ff00ff"/>
    <rect x="15" y="5" width="15" height="15" fill="#ff00ff"/>
    <rect x="30" y="5" width="15" height="15" fill="#ff00ff"/>
    <rect x="-25" y="20" width="15" height="15" fill="#ff00ff"/>
    <rect x="-10" y="20" width="15" height="15" fill="#ff00ff"/>
    <rect x="5" y="20" width="15" height="15" fill="#ff00ff"/>
    <rect x="20" y="20" width="15" height="15" fill="#ff00ff"/>
    <rect x="-15" y="35" width="15" height="15" fill="#ff00ff"/>
    <rect x="0" y="35" width="15" height="15" fill="#ff00ff"/>
    <rect x="15" y="35" width="15" height="15" fill="#ff00ff"/>
    <rect x="-5" y="50" width="15" height="15" fill="#ff00ff"/>
    <rect x="10" y="50" width="15" height="15" fill="#ff00ff"/>
  </g>
  
  <!-- Glow effect -->
  <circle cx="450" cy="300" r="60" fill="#ff00ff" opacity="0.2"/>
  
  <!-- Text -->
  <text x="450" y="180" font-family="monospace" font-size="32" fill="#00ffff" text-anchor="middle" font-weight="bold">LEVEL UP</text>
  <text x="450" y="550" font-family="monospace" font-size="14" fill="#00ff41" text-anchor="middle" opacity="0.6">HAPPY VALENTINE'S</text>
</svg>
