<svg xmlns="http://www.w3.org/2000/svg" viewBox="0 0 900 600">
  <defs><pattern id="s9" patternUnits="userSpaceOnUse" width="2" height="2"><rect width="2" height="1" fill="#00ff41" opacity="0.08"/></pattern></defs>
  <rect width="900" height="600" fill="#0a0a1a"/>
  <rect width="900" height="600" fill="url(#s9)"/>
  <g transform="translate(450, 300)">
    <rect x="-20" y="-20" width="10" height="10" fill="#ff00ff"/>
    <rect x="-10" y="-20" width="10" height="10" fill="#00ffff"/>
    <rect x="0" y="-20" width="10" height="10" fill="#ff00ff"/>
    <rect x="10" y="-20" width="10" height="10" fill="#00ffff"/>
    <rect x="20" y="-20" width="10" height="10" fill="#ff00ff"/>
    <rect x="-20" y="-10" width="10" height="10" fill="#00ffff"/>
    <rect x="-10" y="-10" width="10" height="10" fill="#ff00ff"/>
    <rect x="0" y="-10" width="10" height="10" fill="#00ff41"/>
    <rect x="10" y="-10" width="10" height="10" fill="#ff00ff"/>
    <rect x="20" y="-10" width="10" height="10" fill="#00ffff"/>
    <rect x="-20" y="0" width="10" height="10" fill="#ff00ff"/>
    <rect x="-10" y="0" width="10" height="10" fill="#00ff41"/>
    <rect x="0" y="0" width="10" height="10" fill="#ffff00"/>
    <rect x="10" y="0" width="10" height="10" fill="#00ff41"/>
    <rect x="20" y="0" width="10" height="10" fill="#ff00ff"/>
    <rect x="-20" y="10" width="10" height="10" fill="#00ffff"/>
    <rect x="-10" y="10" width="10" height="10" fill="#ff00ff"/>
    <rect x="0" y="10" width="10" height="10" fill="#00ff41"/>
    <rect x="10" y="10" width="10" height="10" fill="#ff00ff"/>
    <rect x="20" y="10" width="10" height="10" fill="#00ffff"/>
    <rect x="-20" y="20" width="10" height="10" fill="#ff00ff"/>
    <rect x="-10" y="20" width="10" height="10" fill="#00ffff"/>
    <rect x="0" y="20" width="10" height="10" fill="#ff00ff"/>
    <rect x="10" y="20" width="10" height="10" fill="#00ffff"/>
    <rect x="20" y="20" width="10" height="10" fill="#ff00ff"/>
  </g>
  <text x="450" y="200" font-family="monospace" font-size="32" fill="#00ffff" text-anchor="middle" font-weight="bold">BONUS ROUND</text>
  <text x="450" y="550" font-family="monospace" font-size="14" fill="#00ff41" text-anchor="middle" opacity="0.6">HAPPY VALENTINE'S</text>
</svg>
