<svg>
  <defs>
    <filter id="glow" x="-50%" y="-50%" width="200%" height="200%">
      <feGaussianBlur stdDeviation="4" result="blur">
        <animate attributeName="stdDeviation" values="4;8;4" dur="2s" repeatCount="indefinite"/>
      </feGaussianBlur>
      <feMerge>
        <feMergeNode in="blur"/>
        <feMergeNode in="SourceGraphic"/>
      </feMerge>
    </filter>
  </defs> xmlns="http://www.w3.org/2000/svg" viewBox="0 0 256 256">
  <g transform-origin="128 128">
    <animateTransform attributeName="transform" type="scale" values="1;1.03;1" dur="3s" repeatCount="indefinite"/>
    <path fill="#101026" d="M70 206c0-48 26-78 58-78s58 30 58 78c0 12-10 22-22 22H92c-12 0-22-10-22-22z"/>
  <path fill="#101026" d="M92 126l-18-26V72l26 18zm72 0l18-26V72l-26 18z"/>
  <circle cx="108" cy="166" r="10" fill="#7cff6b"/>
  <circle cx="148" cy="166" r="10" fill="#7cff6b"/>
  <path d="M128 174l-8 8h16z" fill="#ff4fd8"/>
  </g>

  <circle cx="80" cy="80" r="2" fill="#fff" opacity="0.6">
    <animate attributeName="opacity" values="0.3;0.8;0.3" dur="2s" repeatCount="indefinite"/>
    <animateTransform attributeName="transform" type="translate" values="0,0; 10,-10; 0,0" dur="3s" repeatCount="indefinite"/>
  </circle>
  <circle cx="176" cy="176" r="1.5" fill="#fff" opacity="0.5">
    <animate attributeName="opacity" values="0.3;0.7;0.3" dur="2.5s" repeatCount="indefinite" begin="1s"/>
  </circle>
</svg>
