<svg>
  <defs>
    <filter id="glow" x="-50%" y="-50%" width="200%" height="200%">
      <feGaussianBlur stdDeviation="4" result="blur">
        <animate attributeName="stdDeviation" values="4;8;4" dur="2s" repeatCount="indefinite"/>
      </feGaussianBlur>
      <feMerge>
        <feMergeNode in="blur"/>
        <feMergeNode in="SourceGraphic"/>
      </feMerge>
    </filter>
  </defs> xmlns="http://www.w3.org/2000/svg" viewBox="0 0 256 256">
  <g transform-origin="128 128">
    <animateTransform attributeName="transform" type="scale" values="1;1.03;1" dur="3s" repeatCount="indefinite"/>
    <path fill="#101026" d="M64 112h128c0 64-28 108-64 108s-64-44-64-108z"/>
  <path fill="#00e5ff" opacity="0.7">
      <animate attributeName="opacity" values="0.8;1;0.8" dur="2s" repeatCount="indefinite"/> d="M80 112c6 22 18 36 48 36s42-14 48-36z"/>
  <path fill="#ff7ad9" opacity="0.6" d="M98 86c10 14 12 18 8 26-10-6-18-10-8-26zm46 0c10 14 12 18 8 26-10-6-18-10-8-26z"/>
  </g>

  <circle cx="80" cy="80" r="2" fill="#fff" opacity="0.6">
    <animate attributeName="opacity" values="0.3;0.8;0.3" dur="2s" repeatCount="indefinite"/>
    <animateTransform attributeName="transform" type="translate" values="0,0; 10,-10; 0,0" dur="3s" repeatCount="indefinite"/>
  </circle>
  <circle cx="176" cy="176" r="1.5" fill="#fff" opacity="0.5">
    <animate attributeName="opacity" values="0.3;0.7;0.3" dur="2.5s" repeatCount="indefinite" begin="1s"/>
  </circle>
</svg>
