<svg>
  <defs>
    <filter id="glow" x="-50%" y="-50%" width="200%" height="200%">
      <feGaussianBlur stdDeviation="4" result="blur">
        <animate attributeName="stdDeviation" values="4;8;4" dur="2s" repeatCount="indefinite"/>
      </feGaussianBlur>
      <feMerge>
        <feMergeNode in="blur"/>
        <feMergeNode in="SourceGraphic"/>
      </feMerge>
    </filter>
  </defs> xmlns="http://www.w3.org/2000/svg" viewBox="0 0 256 256">
  <g transform-origin="128 128">
    <animateTransform attributeName="transform" type="scale" values="1;1.03;1" dur="3s" repeatCount="indefinite"/>
    <path fill="#101026" d="M106 40h44v20l-12 16v20c32 18 44 46 44 74 0 34-24 62-54 62s-54-28-54-62c0-28 12-56 44-74V76l-12-16z"/>
  <path fill="#00e5ff" opacity="0.75">
      <animate attributeName="opacity" values="0.8;1;0.8" dur="2s" repeatCount="indefinite"/> d="M96 160c10 18 20 28 32 28s22-10 32-28c-8-10-18-14-32-14s-24 4-32 14z"/>
  <circle cx="156" cy="126" r="6" fill="#ff7ad9"/>
  <circle cx="108" cy="118" r="6" fill="#ffd54a"/>
  </g>

  <circle cx="80" cy="80" r="2" fill="#fff" opacity="0.6">
    <animate attributeName="opacity" values="0.3;0.8;0.3" dur="2s" repeatCount="indefinite"/>
    <animateTransform attributeName="transform" type="translate" values="0,0; 10,-10; 0,0" dur="3s" repeatCount="indefinite"/>
  </circle>
  <circle cx="176" cy="176" r="1.5" fill="#fff" opacity="0.5">
    <animate attributeName="opacity" values="0.3;0.7;0.3" dur="2.5s" repeatCount="indefinite" begin="1s"/>
  </circle>
</svg>
