<svg>
  <defs>
    <filter id="glow" x="-50%" y="-50%" width="200%" height="200%">
      <feGaussianBlur stdDeviation="4" result="blur">
        <animate attributeName="stdDeviation" values="4;8;4" dur="2s" repeatCount="indefinite"/>
      </feGaussianBlur>
      <feMerge>
        <feMergeNode in="blur"/>
        <feMergeNode in="SourceGraphic"/>
      </feMerge>
    </filter>
  </defs> xmlns="http://www.w3.org/2000/svg" viewBox="0 0 256 256">
  <g transform-origin="128 128">
    <animateTransform attributeName="transform" type="scale" values="1;1.03;1" dur="3s" repeatCount="indefinite"/>
    <path fill="#101026" d="M72 54h112c14 0 26 12 26 26v132c-18-10-40-10-56 0-16-10-38-10-56 0-16-10-38-10-56 0V80c0-14 12-26 26-26z"/>
  <path d="M128 78h54" stroke="#00e5ff" stroke-width="8" stroke-linecap="round" opacity="0.8">
      <animate attributeName="opacity" values="0.8;1;0.8" dur="2s" repeatCount="indefinite"/>/>
  <path fill="#ffd54a" d="M96 112l12 24 26 4-19 18 4 26-23-12-23 12 4-26-19-18 26-4z"/>
  </g>

  <circle cx="80" cy="80" r="2" fill="#fff" opacity="0.6">
    <animate attributeName="opacity" values="0.3;0.8;0.3" dur="2s" repeatCount="indefinite"/>
    <animateTransform attributeName="transform" type="translate" values="0,0; 10,-10; 0,0" dur="3s" repeatCount="indefinite"/>
  </circle>
  <circle cx="176" cy="176" r="1.5" fill="#fff" opacity="0.5">
    <animate attributeName="opacity" values="0.3;0.7;0.3" dur="2.5s" repeatCount="indefinite" begin="1s"/>
  </circle>
</svg>
