<svg xmlns="http://www.w3.org/2000/svg" width="800" height="520" viewBox="0 0 800 520">
  <defs>
    <linearGradient id="g" x1="0" y1="0" x2="1" y2="1">
      <stop offset="0" stop-color="#ff4fd8"/>
      <stop offset="1" stop-color="#4dffb5"/>
    </linearGradient>
    <filter id="s" x="-20%" y="-20%" width="140%" height="140%">
      <feDropShadow dx="0" dy="10" stdDeviation="18" flood-color="#000" flood-opacity=".45"/>
    </filter>
  </defs>
  <rect x="36" y="30" width="728" height="460" rx="28" fill="rgba(255,255,255,.06)" stroke="rgba(255,255,255,.14)" filter="url(#s)"/>
  <circle cx="210" cy="145" r="64" fill="url(#g)" opacity=".35"/>
  <circle cx="550" cy="322" r="86" fill="url(#g)" opacity=".22"/>
  <path d="M260 240c0-40 28-68 70-68 28 0 48 14 60 34 12-20 32-34 60-34 42 0 70 28 70 68 0 78-130 142-130 142S260 318 260 240z" fill="rgba(11,11,16,.82)"/>
  <text x="60" y="470" font-family="ui-sans-serif,system-ui" font-size="22" fill="rgba(255,255,255,.86)">Sample Love • Card 1</text>
  <text x="60" y="60" font-family="ui-sans-serif,system-ui" font-size="18" fill="rgba(255,255,255,.68)">Punch &amp; Send</text>
</svg>