<svg xmlns="http://www.w3.org/2000/svg" viewBox="0 0 1200 1200">
  <defs>
    <linearGradient id="p" x1="0" y1="0" x2="1" y2="1">
      <stop offset="0%" stop-color="#3ef0d0" stop-opacity="0.18"/>
      <stop offset="55%" stop-color="#ffd166" stop-opacity="0.14"/>
      <stop offset="100%" stop-color="#ff6b6b" stop-opacity="0.12"/>
    </linearGradient>
  </defs>
  <rect width="1200" height="1200" fill="#06121a"/>
  <g fill="none" stroke="url(#p)" stroke-width="3" opacity="0.9">
    <path d="M90 210 C 220 120, 360 120, 490 210 C 620 300, 760 300, 890 210 C 1020 120, 1110 140, 1140 210" />
    <path d="M60 520 C 220 440, 380 440, 540 520 C 700 600, 860 600, 1020 520 C 1120 470, 1160 490, 1180 520" />
    <path d="M80 840 C 230 760, 390 760, 550 840 C 710 920, 870 920, 1030 840 C 1120 790, 1150 810, 1170 840" />
  </g>
  <g opacity="0.22" fill="#f1fbff">
    <circle cx="160" cy="160" r="2"/><circle cx="360" cy="360" r="2"/><circle cx="560" cy="160" r="2"/>
    <circle cx="760" cy="360" r="2"/><circle cx="960" cy="160" r="2"/><circle cx="160" cy="560" r="2"/>
    <circle cx="360" cy="760" r="2"/><circle cx="560" cy="560" r="2"/><circle cx="760" cy="760" r="2"/>
    <circle cx="960" cy="560" r="2"/><circle cx="160" cy="960" r="2"/><circle cx="560" cy="960" r="2"/>
    <circle cx="960" cy="960" r="2"/>
  </g>
</svg>
