<svg>
  <defs>
    <filter id="glow" x="-50%" y="-50%" width="200%" height="200%">
      <feGaussianBlur stdDeviation="4" result="blur">
        <animate attributeName="stdDeviation" values="4;8;4" dur="2s" repeatCount="indefinite"/>
      </feGaussianBlur>
      <feMerge>
        <feMergeNode in="blur"/>
        <feMergeNode in="SourceGraphic"/>
      </feMerge>
    </filter>
  </defs> xmlns="http://www.w3.org/2000/svg" viewBox="0 0 256 256">
  <g transform-origin="128 128">
    <animateTransform attributeName="transform" type="scale" values="1;1.05;1" dur="2.5s" repeatCount="indefinite"/>
    <path fill="#101026" d="M64 120c0-22 18-40 40-40h48c22 0 40 18 40 40 0 46-22 64-44 64-14 0-24-8-28-18h-24c-4 10-14 18-28 18-22 0-44-18-44-64z"/ filter="url(#glow)">
  <path fill="#00e5ff" d="M92 124h16v-16h12v16h16v12h-16v16h-12v-16H92z"/>
  <circle cx="170" cy="124" r="10" fill="#ff4fd8"/>
  <circle cx="190" cy="140" r="10" fill="#7cff6b"/>
  </g>

  <circle cx="80" cy="80" r="2" fill="#fff" opacity="0.6">
    <animate attributeName="opacity" values="0.3;0.8;0.3" dur="2s" repeatCount="indefinite"/>
    <animateTransform attributeName="transform" type="translate" values="0,0; 10,-10; 0,0" dur="3s" repeatCount="indefinite"/>
  </circle>
  <circle cx="176" cy="176" r="1.5" fill="#fff" opacity="0.5">
    <animate attributeName="opacity" values="0.3;0.7;0.3" dur="2.5s" repeatCount="indefinite" begin="1s"/>
  </circle>
</svg>
