<svg xmlns="http://www.w3.org/2000/svg" width="1500" height="1000" viewBox="0 0 900 600">
  <defs>
    <linearGradient id="bg" x1="0" y1="0" x2="1" y2="1">
      <stop offset="0" stop-color="#07101d"/>
      <stop offset="1" stop-color="#101a2c"/>
    </linearGradient>
    <filter id="softShadow" x="-33.33" y="-33.33" width="140%" height="140%">
      <feDropShadow dx="0" dy="13.33" stdDeviation="16.67" flood-color="rgba(0,0,0,0.35)"/>
    </filter>
  </defs>
  <rect x="0" y="0" width="1500" height="1000" rx="43.33" fill="url(#bg)"/>
  <g opacity="0.95"><circle cx="30" cy="20" r="5" fill="rgba(255,255,255,0.65)"/><circle cx="30" cy="580" r="5" fill="rgba(255,255,255,0.65)"/><circle cx="60" cy="20" r="5" fill="rgba(255,255,255,0.65)"/><circle cx="60" cy="580" r="5" fill="rgba(255,255,255,0.65)"/><circle cx="90" cy="20" r="5" fill="rgba(255,255,255,0.65)"/><circle cx="90" cy="580" r="5" fill="rgba(255,255,255,0.65)"/><circle cx="120" cy="20" r="5" fill="rgba(255,255,255,0.65)"/><circle cx="120" cy="580" r="5" fill="rgba(255,255,255,0.65)"/><circle cx="150" cy="20" r="5" fill="rgba(255,255,255,0.65)"/><circle cx="150" cy="580" r="5" fill="rgba(255,255,255,0.65)"/><circle cx="180" cy="20" r="5" fill="rgba(255,255,255,0.65)"/><circle cx="180" cy="580" r="5" fill="rgba(255,255,255,0.65)"/><circle cx="210" cy="20" r="5" fill="rgba(255,255,255,0.65)"/><circle cx="210" cy="580" r="5" fill="rgba(255,255,255,0.65)"/><circle cx="240" cy="20" r="5" fill="rgba(255,255,255,0.65)"/><circle cx="240" cy="580" r="5" fill="rgba(255,255,255,0.65)"/><circle cx="270" cy="20" r="5" fill="rgba(255,255,255,0.65)"/><circle cx="270" cy="580" r="5" fill="rgba(255,255,255,0.65)"/><circle cx="300" cy="20" r="5" fill="rgba(255,255,255,0.65)"/><circle cx="300" cy="580" r="5" fill="rgba(255,255,255,0.65)"/><circle cx="330" cy="20" r="5" fill="rgba(255,255,255,0.65)"/><circle cx="330" cy="580" r="5" fill="rgba(255,255,255,0.65)"/><circle cx="360" cy="20" r="5" fill="rgba(255,255,255,0.65)"/><circle cx="360" cy="580" r="5" fill="rgba(255,255,255,0.65)"/><circle cx="390" cy="20" r="5" fill="rgba(255,255,255,0.65)"/><circle cx="390" cy="580" r="5" fill="rgba(255,255,255,0.65)"/><circle cx="420" cy="20" r="5" fill="rgba(255,255,255,0.65)"/><circle cx="420" cy="580" r="5" fill="rgba(255,255,255,0.65)"/><circle cx="450" cy="20" r="5" fill="rgba(255,255,255,0.65)"/><circle cx="450" cy="580" r="5" fill="rgba(255,255,255,0.65)"/><circle cx="480" cy="20" r="5" fill="rgba(255,255,255,0.65)"/><circle cx="480" cy="580" r="5" fill="rgba(255,255,255,0.65)"/><circle cx="510" cy="20" r="5" fill="rgba(255,255,255,0.65)"/><circle cx="510" cy="580" r="5" fill="rgba(255,255,255,0.65)"/><circle cx="540" cy="20" r="5" fill="rgba(255,255,255,0.65)"/><circle cx="540" cy="580" r="5" fill="rgba(255,255,255,0.65)"/><circle cx="570" cy="20" r="5" fill="rgba(255,255,255,0.65)"/><circle cx="570" cy="580" r="5" fill="rgba(255,255,255,0.65)"/><circle cx="600" cy="20" r="5" fill="rgba(255,255,255,0.65)"/><circle cx="600" cy="580" r="5" fill="rgba(255,255,255,0.65)"/><circle cx="630" cy="20" r="5" fill="rgba(255,255,255,0.65)"/><circle cx="630" cy="580" r="5" fill="rgba(255,255,255,0.65)"/><circle cx="660" cy="20" r="5" fill="rgba(255,255,255,0.65)"/><circle cx="660" cy="580" r="5" fill="rgba(255,255,255,0.65)"/><circle cx="690" cy="20" r="5" fill="rgba(255,255,255,0.65)"/><circle cx="690" cy="580" r="5" fill="rgba(255,255,255,0.65)"/><circle cx="720" cy="20" r="5" fill="rgba(255,255,255,0.65)"/><circle cx="720" cy="580" r="5" fill="rgba(255,255,255,0.65)"/><circle cx="750" cy="20" r="5" fill="rgba(255,255,255,0.65)"/><circle cx="750" cy="580" r="5" fill="rgba(255,255,255,0.65)"/><circle cx="780" cy="20" r="5" fill="rgba(255,255,255,0.65)"/><circle cx="780" cy="580" r="5" fill="rgba(255,255,255,0.65)"/><circle cx="810" cy="20" r="5" fill="rgba(255,255,255,0.65)"/><circle cx="810" cy="580" r="5" fill="rgba(255,255,255,0.65)"/><circle cx="840" cy="20" r="5" fill="rgba(255,255,255,0.65)"/><circle cx="840" cy="580" r="5" fill="rgba(255,255,255,0.65)"/><circle cx="870" cy="20" r="5" fill="rgba(255,255,255,0.65)"/><circle cx="870" cy="580" r="5" fill="rgba(255,255,255,0.65)"/><circle cx="20" cy="30" r="5" fill="rgba(255,255,255,0.65)"/><circle cx="880" cy="30" r="5" fill="rgba(255,255,255,0.65)"/><circle cx="20" cy="60" r="5" fill="rgba(255,255,255,0.65)"/><circle cx="880" cy="60" r="5" fill="rgba(255,255,255,0.65)"/><circle cx="20" cy="90" r="5" fill="rgba(255,255,255,0.65)"/><circle cx="880" cy="90" r="5" fill="rgba(255,255,255,0.65)"/><circle cx="20" cy="120" r="5" fill="rgba(255,255,255,0.65)"/><circle cx="880" cy="120" r="5" fill="rgba(255,255,255,0.65)"/><circle cx="20" cy="150" r="5" fill="rgba(255,255,255,0.65)"/><circle cx="880" cy="150" r="5" fill="rgba(255,255,255,0.65)"/><circle cx="20" cy="180" r="5" fill="rgba(255,255,255,0.65)"/><circle cx="880" cy="180" r="5" fill="rgba(255,255,255,0.65)"/><circle cx="20" cy="210" r="5" fill="rgba(255,255,255,0.65)"/><circle cx="880" cy="210" r="5" fill="rgba(255,255,255,0.65)"/><circle cx="20" cy="240" r="5" fill="rgba(255,255,255,0.65)"/><circle cx="880" cy="240" r="5" fill="rgba(255,255,255,0.65)"/><circle cx="20" cy="270" r="5" fill="rgba(255,255,255,0.65)"/><circle cx="880" cy="270" r="5" fill="rgba(255,255,255,0.65)"/><circle cx="20" cy="300" r="5" fill="rgba(255,255,255,0.65)"/><circle cx="880" cy="300" r="5" fill="rgba(255,255,255,0.65)"/><circle cx="20" cy="330" r="5" fill="rgba(255,255,255,0.65)"/><circle cx="880" cy="330" r="5" fill="rgba(255,255,255,0.65)"/><circle cx="20" cy="360" r="5" fill="rgba(255,255,255,0.65)"/><circle cx="880" cy="360" r="5" fill="rgba(255,255,255,0.65)"/><circle cx="20" cy="390" r="5" fill="rgba(255,255,255,0.65)"/><circle cx="880" cy="390" r="5" fill="rgba(255,255,255,0.65)"/><circle cx="20" cy="420" r="5" fill="rgba(255,255,255,0.65)"/><circle cx="880" cy="420" r="5" fill="rgba(255,255,255,0.65)"/><circle cx="20" cy="450" r="5" fill="rgba(255,255,255,0.65)"/><circle cx="880" cy="450" r="5" fill="rgba(255,255,255,0.65)"/><circle cx="20" cy="480" r="5" fill="rgba(255,255,255,0.65)"/><circle cx="880" cy="480" r="5" fill="rgba(255,255,255,0.65)"/><circle cx="20" cy="510" r="5" fill="rgba(255,255,255,0.65)"/><circle cx="880" cy="510" r="5" fill="rgba(255,255,255,0.65)"/><circle cx="20" cy="540" r="5" fill="rgba(255,255,255,0.65)"/><circle cx="880" cy="540" r="5" fill="rgba(255,255,255,0.65)"/><circle cx="20" cy="570" r="5" fill="rgba(255,255,255,0.65)"/><circle cx="880" cy="570" r="5" fill="rgba(255,255,255,0.65)"/></g>
  <g><path d="M116.67 40 V533.33" stroke="#ff2fd6" stroke-opacity="0.22" stroke-width="6.67"/><path d="M233.33 40 V533.33" stroke="#ff2fd6" stroke-opacity="0.22" stroke-width="6.67"/><path d="M350 40 V533.33" stroke="#ff2fd6" stroke-opacity="0.22" stroke-width="6.67"/><path d="M466.67 40 V533.33" stroke="#ff2fd6" stroke-opacity="0.22" stroke-width="6.67"/><path d="M583.33 40 V533.33" stroke="#ff2fd6" stroke-opacity="0.22" stroke-width="6.67"/><path d="M700 40 V533.33" stroke="#ff2fd6" stroke-opacity="0.22" stroke-width="6.67"/><path d="M133.33 120 L383.33 120 L316.67 210 L500 210 L283.33 320" fill="none" stroke="#00f0ff" stroke-width="23.33" stroke-linecap="round" stroke-linejoin="round" opacity="0.9"/><circle cx="716.67" cy="183.33" r="93.33" fill="#ff2fd6" opacity="0.20"/><circle cx="716.67" cy="183.33" r="76.67" fill="none" stroke="#00f0ff" stroke-width="16.67" opacity="0.7"/></g>
  <g filter="url(#softShadow)">
    <rect x="73.33" y="86.67" width="753.33" height="426.67" rx="36.67" fill="rgba(0,0,0,0.22)" stroke="rgba(255,255,255,0.22)" stroke-width="3.33"/>
  </g>
  <text x="116.67" y="200" font-family="DejaVu Sans, Arial, sans-serif" font-size="24" fill="rgba(255,255,255,0.80)" letter-spacing="2">NSH-04</text>
  <text x="450" y="350" text-anchor="middle" font-family="DejaVu Sans, Arial, sans-serif" font-size="44" font-weight="700" fill="#ffffff">Team Us</text>
  <text x="450" y="430" text-anchor="middle" font-family="DejaVu Sans, Arial, sans-serif" font-size="18" fill="rgba(255,255,255,0.78)">To: ________   From: ________</text>
</svg>