<svg xmlns="http://www.w3.org/2000/svg" width="1500" height="1000" viewBox="0 0 900 600">
  <defs>
    <linearGradient id="bg" x1="0" y1="0" x2="1" y2="1">
      <stop offset="0" stop-color="#12062a"/>
      <stop offset="1" stop-color="#2a0b4a"/>
    </linearGradient>
    <filter id="softShadow" x="-33.33" y="-33.33" width="140%" height="140%">
      <feDropShadow dx="0" dy="13.33" stdDeviation="16.67" flood-color="rgba(0,0,0,0.35)"/>
    </filter>
  </defs>
  <rect x="0" y="0" width="1500" height="1000" rx="43.33" fill="url(#bg)"/>
  <g opacity="0.95"><circle cx="30" cy="20" r="5" fill="rgba(255,255,255,0.65)"/><circle cx="30" cy="580" r="5" fill="rgba(255,255,255,0.65)"/><circle cx="60" cy="20" r="5" fill="rgba(255,255,255,0.65)"/><circle cx="60" cy="580" r="5" fill="rgba(255,255,255,0.65)"/><circle cx="90" cy="20" r="5" fill="rgba(255,255,255,0.65)"/><circle cx="90" cy="580" r="5" fill="rgba(255,255,255,0.65)"/><circle cx="120" cy="20" r="5" fill="rgba(255,255,255,0.65)"/><circle cx="120" cy="580" r="5" fill="rgba(255,255,255,0.65)"/><circle cx="150" cy="20" r="5" fill="rgba(255,255,255,0.65)"/><circle cx="150" cy="580" r="5" fill="rgba(255,255,255,0.65)"/><circle cx="180" cy="20" r="5" fill="rgba(255,255,255,0.65)"/><circle cx="180" cy="580" r="5" fill="rgba(255,255,255,0.65)"/><circle cx="210" cy="20" r="5" fill="rgba(255,255,255,0.65)"/><circle cx="210" cy="580" r="5" fill="rgba(255,255,255,0.65)"/><circle cx="240" cy="20" r="5" fill="rgba(255,255,255,0.65)"/><circle cx="240" cy="580" r="5" fill="rgba(255,255,255,0.65)"/><circle cx="270" cy="20" r="5" fill="rgba(255,255,255,0.65)"/><circle cx="270" cy="580" r="5" fill="rgba(255,255,255,0.65)"/><circle cx="300" cy="20" r="5" fill="rgba(255,255,255,0.65)"/><circle cx="300" cy="580" r="5" fill="rgba(255,255,255,0.65)"/><circle cx="330" cy="20" r="5" fill="rgba(255,255,255,0.65)"/><circle cx="330" cy="580" r="5" fill="rgba(255,255,255,0.65)"/><circle cx="360" cy="20" r="5" fill="rgba(255,255,255,0.65)"/><circle cx="360" cy="580" r="5" fill="rgba(255,255,255,0.65)"/><circle cx="390" cy="20" r="5" fill="rgba(255,255,255,0.65)"/><circle cx="390" cy="580" r="5" fill="rgba(255,255,255,0.65)"/><circle cx="420" cy="20" r="5" fill="rgba(255,255,255,0.65)"/><circle cx="420" cy="580" r="5" fill="rgba(255,255,255,0.65)"/><circle cx="450" cy="20" r="5" fill="rgba(255,255,255,0.65)"/><circle cx="450" cy="580" r="5" fill="rgba(255,255,255,0.65)"/><circle cx="480" cy="20" r="5" fill="rgba(255,255,255,0.65)"/><circle cx="480" cy="580" r="5" fill="rgba(255,255,255,0.65)"/><circle cx="510" cy="20" r="5" fill="rgba(255,255,255,0.65)"/><circle cx="510" cy="580" r="5" fill="rgba(255,255,255,0.65)"/><circle cx="540" cy="20" r="5" fill="rgba(255,255,255,0.65)"/><circle cx="540" cy="580" r="5" fill="rgba(255,255,255,0.65)"/><circle cx="570" cy="20" r="5" fill="rgba(255,255,255,0.65)"/><circle cx="570" cy="580" r="5" fill="rgba(255,255,255,0.65)"/><circle cx="600" cy="20" r="5" fill="rgba(255,255,255,0.65)"/><circle cx="600" cy="580" r="5" fill="rgba(255,255,255,0.65)"/><circle cx="630" cy="20" r="5" fill="rgba(255,255,255,0.65)"/><circle cx="630" cy="580" r="5" fill="rgba(255,255,255,0.65)"/><circle cx="660" cy="20" r="5" fill="rgba(255,255,255,0.65)"/><circle cx="660" cy="580" r="5" fill="rgba(255,255,255,0.65)"/><circle cx="690" cy="20" r="5" fill="rgba(255,255,255,0.65)"/><circle cx="690" cy="580" r="5" fill="rgba(255,255,255,0.65)"/><circle cx="720" cy="20" r="5" fill="rgba(255,255,255,0.65)"/><circle cx="720" cy="580" r="5" fill="rgba(255,255,255,0.65)"/><circle cx="750" cy="20" r="5" fill="rgba(255,255,255,0.65)"/><circle cx="750" cy="580" r="5" fill="rgba(255,255,255,0.65)"/><circle cx="780" cy="20" r="5" fill="rgba(255,255,255,0.65)"/><circle cx="780" cy="580" r="5" fill="rgba(255,255,255,0.65)"/><circle cx="810" cy="20" r="5" fill="rgba(255,255,255,0.65)"/><circle cx="810" cy="580" r="5" fill="rgba(255,255,255,0.65)"/><circle cx="840" cy="20" r="5" fill="rgba(255,255,255,0.65)"/><circle cx="840" cy="580" r="5" fill="rgba(255,255,255,0.65)"/><circle cx="870" cy="20" r="5" fill="rgba(255,255,255,0.65)"/><circle cx="870" cy="580" r="5" fill="rgba(255,255,255,0.65)"/><circle cx="20" cy="30" r="5" fill="rgba(255,255,255,0.65)"/><circle cx="880" cy="30" r="5" fill="rgba(255,255,255,0.65)"/><circle cx="20" cy="60" r="5" fill="rgba(255,255,255,0.65)"/><circle cx="880" cy="60" r="5" fill="rgba(255,255,255,0.65)"/><circle cx="20" cy="90" r="5" fill="rgba(255,255,255,0.65)"/><circle cx="880" cy="90" r="5" fill="rgba(255,255,255,0.65)"/><circle cx="20" cy="120" r="5" fill="rgba(255,255,255,0.65)"/><circle cx="880" cy="120" r="5" fill="rgba(255,255,255,0.65)"/><circle cx="20" cy="150" r="5" fill="rgba(255,255,255,0.65)"/><circle cx="880" cy="150" r="5" fill="rgba(255,255,255,0.65)"/><circle cx="20" cy="180" r="5" fill="rgba(255,255,255,0.65)"/><circle cx="880" cy="180" r="5" fill="rgba(255,255,255,0.65)"/><circle cx="20" cy="210" r="5" fill="rgba(255,255,255,0.65)"/><circle cx="880" cy="210" r="5" fill="rgba(255,255,255,0.65)"/><circle cx="20" cy="240" r="5" fill="rgba(255,255,255,0.65)"/><circle cx="880" cy="240" r="5" fill="rgba(255,255,255,0.65)"/><circle cx="20" cy="270" r="5" fill="rgba(255,255,255,0.65)"/><circle cx="880" cy="270" r="5" fill="rgba(255,255,255,0.65)"/><circle cx="20" cy="300" r="5" fill="rgba(255,255,255,0.65)"/><circle cx="880" cy="300" r="5" fill="rgba(255,255,255,0.65)"/><circle cx="20" cy="330" r="5" fill="rgba(255,255,255,0.65)"/><circle cx="880" cy="330" r="5" fill="rgba(255,255,255,0.65)"/><circle cx="20" cy="360" r="5" fill="rgba(255,255,255,0.65)"/><circle cx="880" cy="360" r="5" fill="rgba(255,255,255,0.65)"/><circle cx="20" cy="390" r="5" fill="rgba(255,255,255,0.65)"/><circle cx="880" cy="390" r="5" fill="rgba(255,255,255,0.65)"/><circle cx="20" cy="420" r="5" fill="rgba(255,255,255,0.65)"/><circle cx="880" cy="420" r="5" fill="rgba(255,255,255,0.65)"/><circle cx="20" cy="450" r="5" fill="rgba(255,255,255,0.65)"/><circle cx="880" cy="450" r="5" fill="rgba(255,255,255,0.65)"/><circle cx="20" cy="480" r="5" fill="rgba(255,255,255,0.65)"/><circle cx="880" cy="480" r="5" fill="rgba(255,255,255,0.65)"/><circle cx="20" cy="510" r="5" fill="rgba(255,255,255,0.65)"/><circle cx="880" cy="510" r="5" fill="rgba(255,255,255,0.65)"/><circle cx="20" cy="540" r="5" fill="rgba(255,255,255,0.65)"/><circle cx="880" cy="540" r="5" fill="rgba(255,255,255,0.65)"/><circle cx="20" cy="570" r="5" fill="rgba(255,255,255,0.65)"/><circle cx="880" cy="570" r="5" fill="rgba(255,255,255,0.65)"/></g>
  <g><circle cx="371.67" cy="335" r="8.33" fill="rgba(255,255,255,0.75)"/><circle cx="233.33" cy="230" r="8.33" fill="rgba(255,255,255,0.75)"/><circle cx="576.67" cy="333.33" r="3.33" fill="rgba(255,255,255,0.75)"/><circle cx="561.67" cy="171.67" r="8.33" fill="rgba(255,255,255,0.75)"/><circle cx="270" cy="225" r="8.33" fill="rgba(255,255,255,0.75)"/><circle cx="226.67" cy="225" r="5" fill="rgba(255,255,255,0.75)"/><circle cx="706.67" cy="125" r="3.33" fill="rgba(255,255,255,0.75)"/><circle cx="508.33" cy="180" r="6.67" fill="rgba(255,255,255,0.75)"/><circle cx="333.33" cy="255" r="6.67" fill="rgba(255,255,255,0.75)"/><circle cx="280" cy="178.33" r="5" fill="rgba(255,255,255,0.75)"/><circle cx="783.33" cy="211.67" r="8.33" fill="rgba(255,255,255,0.75)"/><circle cx="723.33" cy="130" r="5" fill="rgba(255,255,255,0.75)"/><circle cx="106.67" cy="246.67" r="5" fill="rgba(255,255,255,0.75)"/><circle cx="618.33" cy="386.67" r="3.33" fill="rgba(255,255,255,0.75)"/><circle cx="110" cy="258.33" r="8.33" fill="rgba(255,255,255,0.75)"/><circle cx="586.67" cy="268.33" r="8.33" fill="rgba(255,255,255,0.75)"/><circle cx="573.33" cy="266.67" r="6.67" fill="rgba(255,255,255,0.75)"/><circle cx="105" cy="390" r="5" fill="rgba(255,255,255,0.75)"/><path d="M-66.67 300 C200 150 300 150 580 310" stroke="#ff4fd8" stroke-width="30" fill="none" opacity="0.7" stroke-linecap="round"/><path d="M-66.67 320 C200 170 300 170 580 330" stroke="#5af0ff" stroke-width="20" fill="none" opacity="0.55" stroke-linecap="round"/><circle cx="716.67" cy="216.67" r="90" fill="rgba(255,255,255,0.10)"/><circle cx="716.67" cy="216.67" r="66.67" fill="none" stroke="rgba(255,255,255,0.55)" stroke-width="10"/></g>
  <g filter="url(#softShadow)">
    <rect x="73.33" y="86.67" width="753.33" height="426.67" rx="36.67" fill="rgba(0,0,0,0.22)" stroke="rgba(255,255,255,0.22)" stroke-width="3.33"/>
  </g>
  <text x="116.67" y="200" font-family="DejaVu Sans, Arial, sans-serif" font-size="24" fill="rgba(255,255,255,0.80)" letter-spacing="2">SGD-10</text>
  <text x="450" y="350" text-anchor="middle" font-family="DejaVu Sans, Arial, sans-serif" font-size="44" font-weight="700" fill="#ffffff">Stardust</text>
  <text x="450" y="430" text-anchor="middle" font-family="DejaVu Sans, Arial, sans-serif" font-size="18" fill="rgba(255,255,255,0.78)">To: ________   From: ________</text>
</svg>