<svg xmlns="http://www.w3.org/2000/svg" viewBox="0 0 900 600">
  <defs>
    <linearGradient id="g" x1="0" y1="0" x2="1" y2="1">
      <stop offset="0" stop-color="#00f5ff" stop-opacity="0.85"/>
      <stop offset="0.6" stop-color="#101225" stop-opacity="0.95"/>
      <stop offset="1" stop-color="#ff2bd6" stop-opacity="0.8"/>
    </linearGradient>
    <filter id="s" x="-40%" y="-40%" width="180%" height="180%">
      <feDropShadow dx="0" dy="18" stdDeviation="14" flood-color="#000" flood-opacity=".45"/>
    </filter>
    <pattern id="dots" width="18" height="18" patternUnits="userSpaceOnUse">
      <circle cx="3" cy="3" r="1.4" fill="rgba(255,255,255,0.10)"/>
    </pattern>
  </defs>
  <rect width="900" height="600" fill="#07080d"/>
  <rect x="26" y="26" width="848" height="548" rx="40" fill="url(#g)" filter="url(#s)"/>
  <rect x="26" y="26" width="848" height="548" rx="40" fill="url(#dots)" opacity=".9"/>
  <rect x="66" y="76" width="768" height="448" rx="34" fill="rgba(0,0,0,.35)" stroke="rgba(255,255,255,.14)"/>
  <text x="92" y="150" font-family="Arial Black, Arial" font-size="44" fill="rgba(255,255,255,.92)">FOUNDER’S PACK</text>
  <text x="92" y="195" font-family="Arial, sans-serif" font-size="22" fill="rgba(234,241,255,.85)">Timbr-only · Private Drop</text>
  <g opacity=".85">
    <path d="M120 470 C210 410, 260 545, 350 485 S 520 560, 640 470" fill="none" stroke="#00f5ff" stroke-width="10" stroke-linecap="round"/>
    <path d="M140 500 C240 440, 300 560, 400 505 S 560 570, 700 490" fill="none" stroke="#ff2bd6" stroke-width="8" stroke-linecap="round" opacity=".85"/>
  </g>
  <text x="92" y="540" font-family="Arial, sans-serif" font-size="18" fill="rgba(142,160,200,.9)">AeroVista · NeXuS</text>
</svg>