<svg xmlns="http://www.w3.org/2000/svg" width="1500" height="1000" viewBox="0 0 900 600">
  <defs>
    <linearGradient id="g" x1="0" y1="0" x2="1" y2="1">
      <stop offset="0" stop-color="#07080b"/>
      <stop offset="1" stop-color="#120c1f"/>
    </linearGradient>
    <filter id="shadow" x="-50" y="-50" width="160%" height="160%">
      <feDropShadow dx="0" dy="15" stdDeviation="16.67" flood-color="rgba(0,0,0,0.45)"/>
    </filter>
  </defs>
  <rect x="0" y="0" width="1500" height="1000" rx="43.33" fill="url(#g)"/>
  <g><circle cx="30" cy="20" r="5" fill="rgba(255,255,255,0.55)"/><circle cx="30" cy="580" r="5" fill="rgba(255,255,255,0.55)"/><circle cx="60" cy="20" r="5" fill="rgba(255,255,255,0.55)"/><circle cx="60" cy="580" r="5" fill="rgba(255,255,255,0.55)"/><circle cx="90" cy="20" r="5" fill="rgba(255,255,255,0.55)"/><circle cx="90" cy="580" r="5" fill="rgba(255,255,255,0.55)"/><circle cx="120" cy="20" r="5" fill="rgba(255,255,255,0.55)"/><circle cx="120" cy="580" r="5" fill="rgba(255,255,255,0.55)"/><circle cx="150" cy="20" r="5" fill="rgba(255,255,255,0.55)"/><circle cx="150" cy="580" r="5" fill="rgba(255,255,255,0.55)"/><circle cx="180" cy="20" r="5" fill="rgba(255,255,255,0.55)"/><circle cx="180" cy="580" r="5" fill="rgba(255,255,255,0.55)"/><circle cx="210" cy="20" r="5" fill="rgba(255,255,255,0.55)"/><circle cx="210" cy="580" r="5" fill="rgba(255,255,255,0.55)"/><circle cx="240" cy="20" r="5" fill="rgba(255,255,255,0.55)"/><circle cx="240" cy="580" r="5" fill="rgba(255,255,255,0.55)"/><circle cx="270" cy="20" r="5" fill="rgba(255,255,255,0.55)"/><circle cx="270" cy="580" r="5" fill="rgba(255,255,255,0.55)"/><circle cx="300" cy="20" r="5" fill="rgba(255,255,255,0.55)"/><circle cx="300" cy="580" r="5" fill="rgba(255,255,255,0.55)"/><circle cx="330" cy="20" r="5" fill="rgba(255,255,255,0.55)"/><circle cx="330" cy="580" r="5" fill="rgba(255,255,255,0.55)"/><circle cx="360" cy="20" r="5" fill="rgba(255,255,255,0.55)"/><circle cx="360" cy="580" r="5" fill="rgba(255,255,255,0.55)"/><circle cx="390" cy="20" r="5" fill="rgba(255,255,255,0.55)"/><circle cx="390" cy="580" r="5" fill="rgba(255,255,255,0.55)"/><circle cx="420" cy="20" r="5" fill="rgba(255,255,255,0.55)"/><circle cx="420" cy="580" r="5" fill="rgba(255,255,255,0.55)"/><circle cx="450" cy="20" r="5" fill="rgba(255,255,255,0.55)"/><circle cx="450" cy="580" r="5" fill="rgba(255,255,255,0.55)"/><circle cx="480" cy="20" r="5" fill="rgba(255,255,255,0.55)"/><circle cx="480" cy="580" r="5" fill="rgba(255,255,255,0.55)"/><circle cx="510" cy="20" r="5" fill="rgba(255,255,255,0.55)"/><circle cx="510" cy="580" r="5" fill="rgba(255,255,255,0.55)"/><circle cx="540" cy="20" r="5" fill="rgba(255,255,255,0.55)"/><circle cx="540" cy="580" r="5" fill="rgba(255,255,255,0.55)"/><circle cx="570" cy="20" r="5" fill="rgba(255,255,255,0.55)"/><circle cx="570" cy="580" r="5" fill="rgba(255,255,255,0.55)"/><circle cx="600" cy="20" r="5" fill="rgba(255,255,255,0.55)"/><circle cx="600" cy="580" r="5" fill="rgba(255,255,255,0.55)"/><circle cx="630" cy="20" r="5" fill="rgba(255,255,255,0.55)"/><circle cx="630" cy="580" r="5" fill="rgba(255,255,255,0.55)"/><circle cx="660" cy="20" r="5" fill="rgba(255,255,255,0.55)"/><circle cx="660" cy="580" r="5" fill="rgba(255,255,255,0.55)"/><circle cx="690" cy="20" r="5" fill="rgba(255,255,255,0.55)"/><circle cx="690" cy="580" r="5" fill="rgba(255,255,255,0.55)"/><circle cx="720" cy="20" r="5" fill="rgba(255,255,255,0.55)"/><circle cx="720" cy="580" r="5" fill="rgba(255,255,255,0.55)"/><circle cx="750" cy="20" r="5" fill="rgba(255,255,255,0.55)"/><circle cx="750" cy="580" r="5" fill="rgba(255,255,255,0.55)"/><circle cx="780" cy="20" r="5" fill="rgba(255,255,255,0.55)"/><circle cx="780" cy="580" r="5" fill="rgba(255,255,255,0.55)"/><circle cx="810" cy="20" r="5" fill="rgba(255,255,255,0.55)"/><circle cx="810" cy="580" r="5" fill="rgba(255,255,255,0.55)"/><circle cx="840" cy="20" r="5" fill="rgba(255,255,255,0.55)"/><circle cx="840" cy="580" r="5" fill="rgba(255,255,255,0.55)"/><circle cx="870" cy="20" r="5" fill="rgba(255,255,255,0.55)"/><circle cx="870" cy="580" r="5" fill="rgba(255,255,255,0.55)"/><circle cx="20" cy="30" r="5" fill="rgba(255,255,255,0.55)"/><circle cx="880" cy="30" r="5" fill="rgba(255,255,255,0.55)"/><circle cx="20" cy="60" r="5" fill="rgba(255,255,255,0.55)"/><circle cx="880" cy="60" r="5" fill="rgba(255,255,255,0.55)"/><circle cx="20" cy="90" r="5" fill="rgba(255,255,255,0.55)"/><circle cx="880" cy="90" r="5" fill="rgba(255,255,255,0.55)"/><circle cx="20" cy="120" r="5" fill="rgba(255,255,255,0.55)"/><circle cx="880" cy="120" r="5" fill="rgba(255,255,255,0.55)"/><circle cx="20" cy="150" r="5" fill="rgba(255,255,255,0.55)"/><circle cx="880" cy="150" r="5" fill="rgba(255,255,255,0.55)"/><circle cx="20" cy="180" r="5" fill="rgba(255,255,255,0.55)"/><circle cx="880" cy="180" r="5" fill="rgba(255,255,255,0.55)"/><circle cx="20" cy="210" r="5" fill="rgba(255,255,255,0.55)"/><circle cx="880" cy="210" r="5" fill="rgba(255,255,255,0.55)"/><circle cx="20" cy="240" r="5" fill="rgba(255,255,255,0.55)"/><circle cx="880" cy="240" r="5" fill="rgba(255,255,255,0.55)"/><circle cx="20" cy="270" r="5" fill="rgba(255,255,255,0.55)"/><circle cx="880" cy="270" r="5" fill="rgba(255,255,255,0.55)"/><circle cx="20" cy="300" r="5" fill="rgba(255,255,255,0.55)"/><circle cx="880" cy="300" r="5" fill="rgba(255,255,255,0.55)"/><circle cx="20" cy="330" r="5" fill="rgba(255,255,255,0.55)"/><circle cx="880" cy="330" r="5" fill="rgba(255,255,255,0.55)"/><circle cx="20" cy="360" r="5" fill="rgba(255,255,255,0.55)"/><circle cx="880" cy="360" r="5" fill="rgba(255,255,255,0.55)"/><circle cx="20" cy="390" r="5" fill="rgba(255,255,255,0.55)"/><circle cx="880" cy="390" r="5" fill="rgba(255,255,255,0.55)"/><circle cx="20" cy="420" r="5" fill="rgba(255,255,255,0.55)"/><circle cx="880" cy="420" r="5" fill="rgba(255,255,255,0.55)"/><circle cx="20" cy="450" r="5" fill="rgba(255,255,255,0.55)"/><circle cx="880" cy="450" r="5" fill="rgba(255,255,255,0.55)"/><circle cx="20" cy="480" r="5" fill="rgba(255,255,255,0.55)"/><circle cx="880" cy="480" r="5" fill="rgba(255,255,255,0.55)"/><circle cx="20" cy="510" r="5" fill="rgba(255,255,255,0.55)"/><circle cx="880" cy="510" r="5" fill="rgba(255,255,255,0.55)"/><circle cx="20" cy="540" r="5" fill="rgba(255,255,255,0.55)"/><circle cx="880" cy="540" r="5" fill="rgba(255,255,255,0.55)"/><circle cx="20" cy="570" r="5" fill="rgba(255,255,255,0.55)"/><circle cx="880" cy="570" r="5" fill="rgba(255,255,255,0.55)"/></g>
  <path d="M66.67 300 C233.33 220 220 360 320 280 C700 210 470 330 520 250" stroke="#ff2fd6" stroke-opacity="0.25" stroke-width="23.33" fill="none" stroke-linecap="round"/>
  <path d="M33.33 110 C233.33 70 220 140 320 100 C733.33 55 510 140 560 90" stroke="#39ff14" stroke-opacity="0.18" stroke-width="30" fill="none" stroke-linecap="round"/>
  <circle cx="733.33" cy="166.67" r="103.33" fill="rgba(255,255,255,0.06)"/>
  <circle cx="733.33" cy="166.67" r="86.67" fill="none" stroke="#39ff14" stroke-width="20" stroke-opacity="0.8"/>
  <circle cx="733.33" cy="166.67" r="60" fill="none" stroke="rgba(255,255,255,0.25)" stroke-width="10"/>
  <g filter="url(#shadow)">
    <rect x="73.33" y="86.67" width="753.33" height="426.67" rx="36.67" fill="rgba(0,0,0,0.26)" stroke="rgba(255,255,255,0.20)" stroke-width="3.33"/>
  </g>
  <text x="116.67" y="200" font-family="DejaVu Sans, Arial, sans-serif" font-size="24" fill="rgba(255,255,255,0.78)" letter-spacing="2">SNN-14</text>
  <text x="450" y="353.33" text-anchor="middle" font-family="DejaVu Sans, Arial, sans-serif" font-size="44" font-weight="800" fill="#ffffff">Toxic Sweet</text>
  <!-- To/From drawn by app overlay -->
</svg>