<svg xmlns="http://www.w3.org/2000/svg" width="1500" height="1000" viewBox="0 0 900 600">
  <defs>
    <linearGradient id="bg" x1="0" y1="0" x2="1" y2="1">
      <stop offset="0" stop-color="#07080b"/>
      <stop offset="1" stop-color="#111218"/>
    </linearGradient>
    <filter id="softShadow" x="-33.33" y="-33.33" width="140%" height="140%">
      <feDropShadow dx="0" dy="13.33" stdDeviation="16.67" flood-color="rgba(0,0,0,0.35)"/>
    </filter>
  </defs>
  <rect x="0" y="0" width="1500" height="1000" rx="43.33" fill="url(#bg)"/>
  <g opacity="0.95"><circle cx="30" cy="20" r="5" fill="rgba(255,255,255,0.65)"/><circle cx="30" cy="580" r="5" fill="rgba(255,255,255,0.65)"/><circle cx="60" cy="20" r="5" fill="rgba(255,255,255,0.65)"/><circle cx="60" cy="580" r="5" fill="rgba(255,255,255,0.65)"/><circle cx="90" cy="20" r="5" fill="rgba(255,255,255,0.65)"/><circle cx="90" cy="580" r="5" fill="rgba(255,255,255,0.65)"/><circle cx="120" cy="20" r="5" fill="rgba(255,255,255,0.65)"/><circle cx="120" cy="580" r="5" fill="rgba(255,255,255,0.65)"/><circle cx="150" cy="20" r="5" fill="rgba(255,255,255,0.65)"/><circle cx="150" cy="580" r="5" fill="rgba(255,255,255,0.65)"/><circle cx="180" cy="20" r="5" fill="rgba(255,255,255,0.65)"/><circle cx="180" cy="580" r="5" fill="rgba(255,255,255,0.65)"/><circle cx="210" cy="20" r="5" fill="rgba(255,255,255,0.65)"/><circle cx="210" cy="580" r="5" fill="rgba(255,255,255,0.65)"/><circle cx="240" cy="20" r="5" fill="rgba(255,255,255,0.65)"/><circle cx="240" cy="580" r="5" fill="rgba(255,255,255,0.65)"/><circle cx="270" cy="20" r="5" fill="rgba(255,255,255,0.65)"/><circle cx="270" cy="580" r="5" fill="rgba(255,255,255,0.65)"/><circle cx="300" cy="20" r="5" fill="rgba(255,255,255,0.65)"/><circle cx="300" cy="580" r="5" fill="rgba(255,255,255,0.65)"/><circle cx="330" cy="20" r="5" fill="rgba(255,255,255,0.65)"/><circle cx="330" cy="580" r="5" fill="rgba(255,255,255,0.65)"/><circle cx="360" cy="20" r="5" fill="rgba(255,255,255,0.65)"/><circle cx="360" cy="580" r="5" fill="rgba(255,255,255,0.65)"/><circle cx="390" cy="20" r="5" fill="rgba(255,255,255,0.65)"/><circle cx="390" cy="580" r="5" fill="rgba(255,255,255,0.65)"/><circle cx="420" cy="20" r="5" fill="rgba(255,255,255,0.65)"/><circle cx="420" cy="580" r="5" fill="rgba(255,255,255,0.65)"/><circle cx="450" cy="20" r="5" fill="rgba(255,255,255,0.65)"/><circle cx="450" cy="580" r="5" fill="rgba(255,255,255,0.65)"/><circle cx="480" cy="20" r="5" fill="rgba(255,255,255,0.65)"/><circle cx="480" cy="580" r="5" fill="rgba(255,255,255,0.65)"/><circle cx="510" cy="20" r="5" fill="rgba(255,255,255,0.65)"/><circle cx="510" cy="580" r="5" fill="rgba(255,255,255,0.65)"/><circle cx="540" cy="20" r="5" fill="rgba(255,255,255,0.65)"/><circle cx="540" cy="580" r="5" fill="rgba(255,255,255,0.65)"/><circle cx="570" cy="20" r="5" fill="rgba(255,255,255,0.65)"/><circle cx="570" cy="580" r="5" fill="rgba(255,255,255,0.65)"/><circle cx="600" cy="20" r="5" fill="rgba(255,255,255,0.65)"/><circle cx="600" cy="580" r="5" fill="rgba(255,255,255,0.65)"/><circle cx="630" cy="20" r="5" fill="rgba(255,255,255,0.65)"/><circle cx="630" cy="580" r="5" fill="rgba(255,255,255,0.65)"/><circle cx="660" cy="20" r="5" fill="rgba(255,255,255,0.65)"/><circle cx="660" cy="580" r="5" fill="rgba(255,255,255,0.65)"/><circle cx="690" cy="20" r="5" fill="rgba(255,255,255,0.65)"/><circle cx="690" cy="580" r="5" fill="rgba(255,255,255,0.65)"/><circle cx="720" cy="20" r="5" fill="rgba(255,255,255,0.65)"/><circle cx="720" cy="580" r="5" fill="rgba(255,255,255,0.65)"/><circle cx="750" cy="20" r="5" fill="rgba(255,255,255,0.65)"/><circle cx="750" cy="580" r="5" fill="rgba(255,255,255,0.65)"/><circle cx="780" cy="20" r="5" fill="rgba(255,255,255,0.65)"/><circle cx="780" cy="580" r="5" fill="rgba(255,255,255,0.65)"/><circle cx="810" cy="20" r="5" fill="rgba(255,255,255,0.65)"/><circle cx="810" cy="580" r="5" fill="rgba(255,255,255,0.65)"/><circle cx="840" cy="20" r="5" fill="rgba(255,255,255,0.65)"/><circle cx="840" cy="580" r="5" fill="rgba(255,255,255,0.65)"/><circle cx="870" cy="20" r="5" fill="rgba(255,255,255,0.65)"/><circle cx="870" cy="580" r="5" fill="rgba(255,255,255,0.65)"/><circle cx="20" cy="30" r="5" fill="rgba(255,255,255,0.65)"/><circle cx="880" cy="30" r="5" fill="rgba(255,255,255,0.65)"/><circle cx="20" cy="60" r="5" fill="rgba(255,255,255,0.65)"/><circle cx="880" cy="60" r="5" fill="rgba(255,255,255,0.65)"/><circle cx="20" cy="90" r="5" fill="rgba(255,255,255,0.65)"/><circle cx="880" cy="90" r="5" fill="rgba(255,255,255,0.65)"/><circle cx="20" cy="120" r="5" fill="rgba(255,255,255,0.65)"/><circle cx="880" cy="120" r="5" fill="rgba(255,255,255,0.65)"/><circle cx="20" cy="150" r="5" fill="rgba(255,255,255,0.65)"/><circle cx="880" cy="150" r="5" fill="rgba(255,255,255,0.65)"/><circle cx="20" cy="180" r="5" fill="rgba(255,255,255,0.65)"/><circle cx="880" cy="180" r="5" fill="rgba(255,255,255,0.65)"/><circle cx="20" cy="210" r="5" fill="rgba(255,255,255,0.65)"/><circle cx="880" cy="210" r="5" fill="rgba(255,255,255,0.65)"/><circle cx="20" cy="240" r="5" fill="rgba(255,255,255,0.65)"/><circle cx="880" cy="240" r="5" fill="rgba(255,255,255,0.65)"/><circle cx="20" cy="270" r="5" fill="rgba(255,255,255,0.65)"/><circle cx="880" cy="270" r="5" fill="rgba(255,255,255,0.65)"/><circle cx="20" cy="300" r="5" fill="rgba(255,255,255,0.65)"/><circle cx="880" cy="300" r="5" fill="rgba(255,255,255,0.65)"/><circle cx="20" cy="330" r="5" fill="rgba(255,255,255,0.65)"/><circle cx="880" cy="330" r="5" fill="rgba(255,255,255,0.65)"/><circle cx="20" cy="360" r="5" fill="rgba(255,255,255,0.65)"/><circle cx="880" cy="360" r="5" fill="rgba(255,255,255,0.65)"/><circle cx="20" cy="390" r="5" fill="rgba(255,255,255,0.65)"/><circle cx="880" cy="390" r="5" fill="rgba(255,255,255,0.65)"/><circle cx="20" cy="420" r="5" fill="rgba(255,255,255,0.65)"/><circle cx="880" cy="420" r="5" fill="rgba(255,255,255,0.65)"/><circle cx="20" cy="450" r="5" fill="rgba(255,255,255,0.65)"/><circle cx="880" cy="450" r="5" fill="rgba(255,255,255,0.65)"/><circle cx="20" cy="480" r="5" fill="rgba(255,255,255,0.65)"/><circle cx="880" cy="480" r="5" fill="rgba(255,255,255,0.65)"/><circle cx="20" cy="510" r="5" fill="rgba(255,255,255,0.65)"/><circle cx="880" cy="510" r="5" fill="rgba(255,255,255,0.65)"/><circle cx="20" cy="540" r="5" fill="rgba(255,255,255,0.65)"/><circle cx="880" cy="540" r="5" fill="rgba(255,255,255,0.65)"/><circle cx="20" cy="570" r="5" fill="rgba(255,255,255,0.65)"/><circle cx="880" cy="570" r="5" fill="rgba(255,255,255,0.65)"/></g>
  <g><path d="M700 10 L900 0 L900 170 Z" fill="#8b5cf6" opacity="0.18"/><path d="M0 280 C200 250 180 320 300 292 C633.33 272 430 340 540 300 V600 H0 Z" fill="#111218" opacity="0.75"/><rect x="50" y="471.67" width="56.67" height="95" fill="rgba(255,255,255,0.10)"/><rect x="146.67" y="488.33" width="56.67" height="78.33" fill="rgba(255,255,255,0.10)"/><rect x="243.33" y="485" width="56.67" height="81.67" fill="rgba(255,255,255,0.10)"/><rect x="340" y="440" width="56.67" height="126.67" fill="rgba(255,255,255,0.10)"/><rect x="436.67" y="390" width="56.67" height="176.67" fill="rgba(255,255,255,0.10)"/><rect x="533.33" y="485" width="56.67" height="81.67" fill="rgba(255,255,255,0.10)"/><rect x="630" y="438.33" width="56.67" height="128.33" fill="rgba(255,255,255,0.10)"/><rect x="726.67" y="413.33" width="56.67" height="153.33" fill="rgba(255,255,255,0.10)"/><rect x="823.33" y="430" width="56.67" height="136.67" fill="rgba(255,255,255,0.10)"/><path d="M0 70 C133.33 50 140 90 220 70 C533.33 45 390 100 540 65" stroke="rgba(255,255,255,0.12)" stroke-width="16.67" fill="none"/></g>
  <g filter="url(#softShadow)">
    <rect x="73.33" y="86.67" width="753.33" height="426.67" rx="36.67" fill="rgba(0,0,0,0.22)" stroke="rgba(255,255,255,0.22)" stroke-width="3.33"/>
  </g>
  <text x="116.67" y="200" font-family="DejaVu Sans, Arial, sans-serif" font-size="24" fill="rgba(255,255,255,0.80)" letter-spacing="2">NCV-16</text>
  <text x="450" y="350" text-anchor="middle" font-family="DejaVu Sans, Arial, sans-serif" font-size="44" font-weight="700" fill="#ffffff">Stay Close</text>
  <text x="450" y="430" text-anchor="middle" font-family="DejaVu Sans, Arial, sans-serif" font-size="18" fill="rgba(255,255,255,0.78)">To: ________   From: ________</text>
</svg>