<svg xmlns="http://www.w3.org/2000/svg" width="800" height="520" viewBox="0 0 800 520">

  <defs>
    <linearGradient id="gMain" x1="0" y1="0" x2="1" y2="1">
      <stop offset="0" stop-color="#07110e"/>
      <stop offset="1" stop-color="#0b1f18"/>
    </linearGradient>

    <radialGradient id="gGlow" cx="50%" cy="40%" r="70%">
      <stop offset="0" stop-color="#00e7ff" stop-opacity="0.22"/>
      <stop offset="0.55" stop-color="#ff4fd8" stop-opacity="0.10"/>
      <stop offset="1" stop-color="#07110e" stop-opacity="0"/>
    </radialGradient>

    <linearGradient id="gNeon" x1="0" y1="1" x2="1" y2="0">
      <stop offset="0" stop-color="#ff4fd8"/>
      <stop offset="1" stop-color="#2cff9a"/>
    </linearGradient>

    <filter id="shadow" x="-30%" y="-30%" width="160%" height="160%">
      <feDropShadow dx="0" dy="10" stdDeviation="18" flood-color="#000" flood-opacity="0.55"/>
    </filter>

    <filter id="swampNoise" x="-20%" y="-20%" width="140%" height="140%">
      <feTurbulence type="fractalNoise" baseFrequency="0.85" numOctaves="2" seed="1444" result="n"/>
      <feColorMatrix in="n" type="matrix"
        values="0.2 0 0 0 0
                0 0.35 0 0 0
                0 0 0.3 0 0
                0 0 0 0.35 0" result="t"/>
      <feComposite in="t" in2="SourceGraphic" operator="overlay"/>
    </filter>

    <filter id="goo" x="-20%" y="-20%" width="140%" height="140%">
      <feGaussianBlur in="SourceGraphic" stdDeviation="1.8" result="b"/>
      <feColorMatrix in="b" type="matrix"
        values="1 0 0 0 0
                0 1 0 0 0
                0 0 1 0 0
                0 0 0 18 -7" result="g"/>
      <feComposite in="g" in2="SourceGraphic" operator="atop"/>
    </filter>

    <style>
      .frame { fill: rgba(255,255,255,0.04); stroke: rgba(255,255,255,0.14); stroke-width: 2; }
      .tiny { font-family: ui-sans-serif, system-ui, -apple-system, Segoe UI, Roboto, Helvetica, Arial; font-size: 16px; fill: rgba(255,255,255,0.72); letter-spacing: 0.2px; }
      .micro { font-family: ui-sans-serif, system-ui; font-size: 13px; fill: rgba(255,255,255,0.58); }
      .neon { fill: none; stroke: url(#gNeon); stroke-width: 6; stroke-linecap: round; stroke-linejoin: round; filter: url(#goo); opacity: 0.92; }
      .neon2 { fill: none; stroke: rgba(0,231,255,0.8); stroke-width: 2.6; stroke-linecap: round; opacity: 0.7; }
      .mist { fill: rgba(167,255,216,0.08); }
      .fire { fill: #ffcf4d; opacity: 0.85; }
    </style>
  </defs>

  <rect width="800" height="520" fill="url(#gMain)"/>
  <rect width="800" height="520" fill="url(#gGlow)"/>

  <circle cx="629" cy="144" r="146" fill="#ff4fd8" opacity="0.10"/>
  <circle cx="677" cy="289" r="136" fill="#00e7ff" opacity="0.10"/>

  <circle cx="229" cy="121" r="59" fill="#d8e7ff" opacity="0.16"/>
  <circle cx="243.8" cy="109.2" r="20.6" fill="#d8e7ff" opacity="0.07"/>

  <path class="mist" d="M0 243 C200 213 420 273 800 233 L800 283 C420 313 200 263 0 293 Z"/>
  <path class="mist" d="M0 343 C220 313 440 373 800 333 L800 388 C440 423 220 363 0 398 Z"/>

  <path d="M452 451 C396.2 404.5, 419.45 311.5, 452 265 C484.55 311.5, 507.8 404.5, 452 451 Z" fill="rgba(0,0,0,0.35)"/><path d="M171 472 C135.0 438.25, 150.0 370.75, 171 337 C192.0 370.75, 207.0 438.25, 171 472 Z" fill="rgba(0,0,0,0.35)"/><path d="M689 402 C644.0 356.75, 662.75 266.25, 689 221 C715.25 266.25, 734.0 356.75, 689 402 Z" fill="rgba(0,0,0,0.35)"/>

  <path class="neon" d="M 139.0 303.0 L 182.5 303.0 L 226.0 303.0 L 269.5 303.0 L 313.0 303.0 L 356.5 303.0 L 400.0 303.0 L 443.5 303.0 L 487.0 303.0 L 530.5 303.0 L 574.0 303.0 L 617.5 303.0 L 661.0 303.0 "/>
  
  
  <path class="neon2" d="M70 90 L70 60 L100 60"/>
  <path class="neon2" d="M730 90 L730 60 L700 60"/>
  <path class="neon2" d="M70 430 L70 460 L100 460"/>
  <path class="neon2" d="M730 430 L730 460 L700 460"/>


  <circle class="fire" cx="439" cy="320" r="3.0"/><circle class="fire" cx="592" cy="399" r="1.6"/><circle class="fire" cx="199" cy="373" r="1.8"/><circle class="fire" cx="297" cy="143" r="2.2"/><circle class="fire" cx="198" cy="378" r="3.0"/><circle class="fire" cx="663" cy="403" r="1.9"/><circle class="fire" cx="225" cy="287" r="2.2"/><circle class="fire" cx="396" cy="217" r="2.3"/><circle class="fire" cx="418" cy="448" r="2.3"/><circle class="fire" cx="239" cy="290" r="1.6"/><circle class="fire" cx="404" cy="247" r="2.2"/><circle class="fire" cx="330" cy="371" r="2.1"/><circle class="fire" cx="251" cy="179" r="2.7"/><circle class="fire" cx="271" cy="323" r="3.2"/><circle class="fire" cx="463" cy="90" r="2.2"/><circle class="fire" cx="567" cy="306" r="2.9"/><circle class="fire" cx="580" cy="98" r="2.1"/><circle class="fire" cx="469" cy="352" r="2.8"/>

  <rect x="32" y="26" width="736" height="468" rx="26" class="frame" filter="url(#shadow)"/>

  <text x="56" y="66" class="micro">SwampHop • Sweetheart Bayou</text>
  <text x="56" y="484" class="tiny">Boots on the Boardwalk</text>
  <text x="56" y="506" class="micro">Stomp, sway, stay.</text>

  <g filter="url(#swampNoise)"><rect width="800" height="520" fill="transparent"/></g>
</svg>
