<svg xmlns="http://www.w3.org/2000/svg" width="800" height="520" viewBox="0 0 800 520">

  <defs>
    <linearGradient id="gMain" x1="0" y1="0" x2="1" y2="1">
      <stop offset="0" stop-color="#07110e"/>
      <stop offset="1" stop-color="#0b1f18"/>
    </linearGradient>

    <radialGradient id="gGlow" cx="50%" cy="40%" r="70%">
      <stop offset="0" stop-color="#00e7ff" stop-opacity="0.22"/>
      <stop offset="0.55" stop-color="#ff4fd8" stop-opacity="0.10"/>
      <stop offset="1" stop-color="#07110e" stop-opacity="0"/>
    </radialGradient>

    <linearGradient id="gNeon" x1="0" y1="1" x2="1" y2="0">
      <stop offset="0" stop-color="#ff4fd8"/>
      <stop offset="1" stop-color="#2cff9a"/>
    </linearGradient>

    <filter id="shadow" x="-30%" y="-30%" width="160%" height="160%">
      <feDropShadow dx="0" dy="10" stdDeviation="18" flood-color="#000" flood-opacity="0.55"/>
    </filter>

    <filter id="swampNoise" x="-20%" y="-20%" width="140%" height="140%">
      <feTurbulence type="fractalNoise" baseFrequency="0.85" numOctaves="2" seed="1185" result="n"/>
      <feColorMatrix in="n" type="matrix"
        values="0.2 0 0 0 0
                0 0.35 0 0 0
                0 0 0.3 0 0
                0 0 0 0.35 0" result="t"/>
      <feComposite in="t" in2="SourceGraphic" operator="overlay"/>
    </filter>

    <filter id="goo" x="-20%" y="-20%" width="140%" height="140%">
      <feGaussianBlur in="SourceGraphic" stdDeviation="1.8" result="b"/>
      <feColorMatrix in="b" type="matrix"
        values="1 0 0 0 0
                0 1 0 0 0
                0 0 1 0 0
                0 0 0 18 -7" result="g"/>
      <feComposite in="g" in2="SourceGraphic" operator="atop"/>
    </filter>

    <style>
      .frame { fill: rgba(255,255,255,0.04); stroke: rgba(255,255,255,0.14); stroke-width: 2; }
      .tiny { font-family: ui-sans-serif, system-ui, -apple-system, Segoe UI, Roboto, Helvetica, Arial; font-size: 16px; fill: rgba(255,255,255,0.72); letter-spacing: 0.2px; }
      .micro { font-family: ui-sans-serif, system-ui; font-size: 13px; fill: rgba(255,255,255,0.58); }
      .neon { fill: none; stroke: url(#gNeon); stroke-width: 6; stroke-linecap: round; stroke-linejoin: round; filter: url(#goo); opacity: 0.92; }
      .neon2 { fill: none; stroke: rgba(0,231,255,0.8); stroke-width: 2.6; stroke-linecap: round; opacity: 0.7; }
      .mist { fill: rgba(167,255,216,0.08); }
      .fire { fill: #ffcf4d; opacity: 0.85; }
    </style>
  </defs>

  <rect width="800" height="520" fill="url(#gMain)"/>
  <rect width="800" height="520" fill="url(#gGlow)"/>

  <circle cx="626" cy="284" r="157" fill="#ff4fd8" opacity="0.10"/>
  <circle cx="311" cy="264" r="83" fill="#00e7ff" opacity="0.10"/>

  <circle cx="353" cy="77" r="41" fill="#d8e7ff" opacity="0.16"/>
  <circle cx="363.2" cy="68.8" r="14.3" fill="#d8e7ff" opacity="0.07"/>

  <path class="mist" d="M0 220 C200 190 420 250 800 210 L800 260 C420 290 200 240 0 270 Z"/>
  <path class="mist" d="M0 320 C220 290 440 350 800 310 L800 365 C440 400 220 340 0 375 Z"/>

  <path d="M487 457 C425.8 422.75, 451.3 354.25, 487 320 C522.7 354.25, 548.2 422.75, 487 457 Z" fill="rgba(0,0,0,0.35)"/><path d="M479 431 C414.2 383.75, 441.2 289.25, 479 242 C516.8 289.25, 543.8 383.75, 479 431 Z" fill="rgba(0,0,0,0.35)"/>

  <path class="neon" d="M 105.0 280.0 L 154.1 280.0 L 203.2 280.0 L 252.2 280.0 L 301.3 280.0 L 350.4 280.0 L 399.5 280.0 L 448.6 280.0 L 497.7 280.0 L 546.8 280.0 L 595.8 280.0 L 644.9 280.0 L 694.0 280.0 "/>
  
  
  <path class="neon2" d="M70 90 L70 60 L100 60"/>
  <path class="neon2" d="M730 90 L730 60 L700 60"/>
  <path class="neon2" d="M70 430 L70 460 L100 460"/>
  <path class="neon2" d="M730 430 L730 460 L700 460"/>


  <circle class="fire" cx="666" cy="243" r="2.9"/><circle class="fire" cx="675" cy="355" r="1.8"/><circle class="fire" cx="123" cy="332" r="1.9"/><circle class="fire" cx="236" cy="420" r="3.1"/><circle class="fire" cx="693" cy="251" r="2.1"/><circle class="fire" cx="219" cy="316" r="2.9"/><circle class="fire" cx="710" cy="387" r="2.3"/><circle class="fire" cx="153" cy="204" r="3.2"/><circle class="fire" cx="347" cy="324" r="2.5"/><circle class="fire" cx="535" cy="107" r="2.9"/><circle class="fire" cx="267" cy="255" r="2.8"/>

  <rect x="32" y="26" width="736" height="468" rx="26" class="frame" filter="url(#shadow)"/>

  <text x="56" y="66" class="micro">SwampHop • Sweetheart Bayou</text>
  <text x="56" y="484" class="tiny">Firefly Flicker</text>
  <text x="56" y="506" class="micro">Little lights, big feelings.</text>

  <g filter="url(#swampNoise)"><rect width="800" height="520" fill="transparent"/></g>
</svg>
