<svg xmlns="http://www.w3.org/2000/svg" width="800" height="520" viewBox="0 0 800 520">

  <defs>
    <linearGradient id="gMain" x1="0" y1="0" x2="1" y2="1">
      <stop offset="0" stop-color="#07110e"/>
      <stop offset="1" stop-color="#0b1f18"/>
    </linearGradient>

    <radialGradient id="gGlow" cx="50%" cy="40%" r="70%">
      <stop offset="0" stop-color="#00e7ff" stop-opacity="0.22"/>
      <stop offset="0.55" stop-color="#ff4fd8" stop-opacity="0.10"/>
      <stop offset="1" stop-color="#07110e" stop-opacity="0"/>
    </radialGradient>

    <linearGradient id="gNeon" x1="0" y1="1" x2="1" y2="0">
      <stop offset="0" stop-color="#ff4fd8"/>
      <stop offset="1" stop-color="#2cff9a"/>
    </linearGradient>

    <filter id="shadow" x="-30%" y="-30%" width="160%" height="160%">
      <feDropShadow dx="0" dy="10" stdDeviation="18" flood-color="#000" flood-opacity="0.55"/>
    </filter>

    <filter id="swampNoise" x="-20%" y="-20%" width="140%" height="140%">
      <feTurbulence type="fractalNoise" baseFrequency="0.85" numOctaves="2" seed="1703" result="n"/>
      <feColorMatrix in="n" type="matrix"
        values="0.2 0 0 0 0
                0 0.35 0 0 0
                0 0 0.3 0 0
                0 0 0 0.35 0" result="t"/>
      <feComposite in="t" in2="SourceGraphic" operator="overlay"/>
    </filter>

    <filter id="goo" x="-20%" y="-20%" width="140%" height="140%">
      <feGaussianBlur in="SourceGraphic" stdDeviation="1.8" result="b"/>
      <feColorMatrix in="b" type="matrix"
        values="1 0 0 0 0
                0 1 0 0 0
                0 0 1 0 0
                0 0 0 18 -7" result="g"/>
      <feComposite in="g" in2="SourceGraphic" operator="atop"/>
    </filter>

    <style>
      .frame { fill: rgba(255,255,255,0.04); stroke: rgba(255,255,255,0.14); stroke-width: 2; }
      .tiny { font-family: ui-sans-serif, system-ui, -apple-system, Segoe UI, Roboto, Helvetica, Arial; font-size: 16px; fill: rgba(255,255,255,0.72); letter-spacing: 0.2px; }
      .micro { font-family: ui-sans-serif, system-ui; font-size: 13px; fill: rgba(255,255,255,0.58); }
      .neon { fill: none; stroke: url(#gNeon); stroke-width: 6; stroke-linecap: round; stroke-linejoin: round; filter: url(#goo); opacity: 0.92; }
      .neon2 { fill: none; stroke: rgba(0,231,255,0.8); stroke-width: 2.6; stroke-linecap: round; opacity: 0.7; }
      .mist { fill: rgba(167,255,216,0.08); }
      .fire { fill: #ffcf4d; opacity: 0.85; }
    </style>
  </defs>

  <rect width="800" height="520" fill="url(#gMain)"/>
  <rect width="800" height="520" fill="url(#gGlow)"/>

  <circle cx="323" cy="258" r="91" fill="#ff4fd8" opacity="0.10"/>
  <circle cx="474" cy="262" r="103" fill="#00e7ff" opacity="0.10"/>

  <circle cx="623" cy="121" r="50" fill="#d8e7ff" opacity="0.16"/>
  <circle cx="635.5" cy="111.0" r="17.5" fill="#d8e7ff" opacity="0.07"/>

  <path class="mist" d="M0 195 C200 165 420 225 800 185 L800 235 C420 265 200 215 0 245 Z"/>
  <path class="mist" d="M0 295 C220 265 440 325 800 285 L800 340 C440 375 220 315 0 350 Z"/>

  <path d="M84 363 C21.6 310.5, 47.6 205.5, 84 153 C120.4 205.5, 146.4 310.5, 84 363 Z" fill="rgba(0,0,0,0.35)"/><path d="M424 482 C367.6 446.75, 391.1 376.25, 424 341 C456.9 376.25, 480.4 446.75, 424 482 Z" fill="rgba(0,0,0,0.35)"/>

  
  <path class="neon" d="M 458 351.82135245210986 C 392.5359426436704 300.9048633971869, 421.6310792464836 242.7145901915606, 458 279.083510945077 C 494.3689207535164 242.7145901915606, 523.4640573563296 300.9048633971869, 458 351.82135245210986 Z"/>
  
  <path class="neon2" d="M70 90 L70 60 L100 60"/>
  <path class="neon2" d="M730 90 L730 60 L700 60"/>
  <path class="neon2" d="M70 430 L70 460 L100 460"/>
  <path class="neon2" d="M730 430 L730 460 L700 460"/>


  <circle class="fire" cx="239" cy="283" r="2.1"/><circle class="fire" cx="672" cy="207" r="2.4"/><circle class="fire" cx="444" cy="255" r="2.5"/><circle class="fire" cx="702" cy="202" r="3.0"/><circle class="fire" cx="418" cy="216" r="2.3"/><circle class="fire" cx="462" cy="156" r="2.5"/><circle class="fire" cx="461" cy="270" r="2.6"/><circle class="fire" cx="159" cy="229" r="2.9"/><circle class="fire" cx="720" cy="357" r="1.5"/><circle class="fire" cx="736" cy="301" r="3.2"/>

  <rect x="32" y="26" width="736" height="468" rx="26" class="frame" filter="url(#shadow)"/>

  <text x="56" y="66" class="micro">SwampHop • Sweetheart Bayou</text>
  <text x="56" y="484" class="tiny">Siren in the Cypress</text>
  <text x="56" y="506" class="micro">Come closer, don’t rush.</text>

  <g filter="url(#swampNoise)"><rect width="800" height="520" fill="transparent"/></g>
</svg>
