<svg xmlns="http://www.w3.org/2000/svg" width="800" height="520" viewBox="0 0 800 520">

  <defs>
    <linearGradient id="gMain" x1="0" y1="0" x2="1" y2="1">
      <stop offset="0" stop-color="#07110e"/>
      <stop offset="1" stop-color="#0b1f18"/>
    </linearGradient>

    <radialGradient id="gGlow" cx="50%" cy="40%" r="70%">
      <stop offset="0" stop-color="#00e7ff" stop-opacity="0.22"/>
      <stop offset="0.55" stop-color="#ff4fd8" stop-opacity="0.10"/>
      <stop offset="1" stop-color="#07110e" stop-opacity="0"/>
    </radialGradient>

    <linearGradient id="gNeon" x1="0" y1="1" x2="1" y2="0">
      <stop offset="0" stop-color="#ff4fd8"/>
      <stop offset="1" stop-color="#2cff9a"/>
    </linearGradient>

    <filter id="shadow" x="-30%" y="-30%" width="160%" height="160%">
      <feDropShadow dx="0" dy="10" stdDeviation="18" flood-color="#000" flood-opacity="0.55"/>
    </filter>

    <filter id="swampNoise" x="-20%" y="-20%" width="140%" height="140%">
      <feTurbulence type="fractalNoise" baseFrequency="0.85" numOctaves="2" seed="1481" result="n"/>
      <feColorMatrix in="n" type="matrix"
        values="0.2 0 0 0 0
                0 0.35 0 0 0
                0 0 0.3 0 0
                0 0 0 0.35 0" result="t"/>
      <feComposite in="t" in2="SourceGraphic" operator="overlay"/>
    </filter>

    <filter id="goo" x="-20%" y="-20%" width="140%" height="140%">
      <feGaussianBlur in="SourceGraphic" stdDeviation="1.8" result="b"/>
      <feColorMatrix in="b" type="matrix"
        values="1 0 0 0 0
                0 1 0 0 0
                0 0 1 0 0
                0 0 0 18 -7" result="g"/>
      <feComposite in="g" in2="SourceGraphic" operator="atop"/>
    </filter>

    <style>
      .frame { fill: rgba(255,255,255,0.04); stroke: rgba(255,255,255,0.14); stroke-width: 2; }
      .tiny { font-family: ui-sans-serif, system-ui, -apple-system, Segoe UI, Roboto, Helvetica, Arial; font-size: 16px; fill: rgba(255,255,255,0.72); letter-spacing: 0.2px; }
      .micro { font-family: ui-sans-serif, system-ui; font-size: 13px; fill: rgba(255,255,255,0.58); }
      .neon { fill: none; stroke: url(#gNeon); stroke-width: 6; stroke-linecap: round; stroke-linejoin: round; filter: url(#goo); opacity: 0.92; }
      .neon2 { fill: none; stroke: rgba(0,231,255,0.8); stroke-width: 2.6; stroke-linecap: round; opacity: 0.7; }
      .mist { fill: rgba(167,255,216,0.08); }
      .fire { fill: #ffcf4d; opacity: 0.85; }
    </style>
  </defs>

  <rect width="800" height="520" fill="url(#gMain)"/>
  <rect width="800" height="520" fill="url(#gGlow)"/>

  <circle cx="259" cy="274" r="101" fill="#ff4fd8" opacity="0.10"/>
  <circle cx="482" cy="219" r="74" fill="#00e7ff" opacity="0.10"/>

  <circle cx="108" cy="122" r="64" fill="#d8e7ff" opacity="0.16"/>
  <circle cx="124.0" cy="109.2" r="22.4" fill="#d8e7ff" opacity="0.07"/>

  <path class="mist" d="M0 236 C200 206 420 266 800 226 L800 276 C420 306 200 256 0 286 Z"/>
  <path class="mist" d="M0 336 C220 306 440 366 800 326 L800 381 C440 416 220 356 0 391 Z"/>

  <path d="M107 495 C65.0 463.25, 82.5 399.75, 107 368 C131.5 399.75, 149.0 463.25, 107 495 Z" fill="rgba(0,0,0,0.35)"/><path d="M241 485 C191.8 439.5, 212.3 348.5, 241 303 C269.7 348.5, 290.2 439.5, 241 485 Z" fill="rgba(0,0,0,0.35)"/><path d="M122 401 C80.0 361.25, 97.5 281.75, 122 242 C146.5 281.75, 164.0 361.25, 122 401 Z" fill="rgba(0,0,0,0.35)"/>

  <path class="neon" d="M 126.0 296.0 L 171.7 296.0 L 217.3 296.0 L 263.0 296.0 L 308.7 296.0 L 354.3 296.0 L 400.0 296.0 L 445.7 296.0 L 491.3 296.0 L 537.0 296.0 L 582.7 296.0 L 628.3 296.0 L 674.0 296.0 "/>
  
  
  <path class="neon2" d="M70 90 L70 60 L100 60"/>
  <path class="neon2" d="M730 90 L730 60 L700 60"/>
  <path class="neon2" d="M70 430 L70 460 L100 460"/>
  <path class="neon2" d="M730 430 L730 460 L700 460"/>


  <circle class="fire" cx="136" cy="446" r="2.8"/><circle class="fire" cx="99" cy="397" r="2.4"/><circle class="fire" cx="423" cy="389" r="2.1"/><circle class="fire" cx="606" cy="192" r="2.8"/><circle class="fire" cx="690" cy="237" r="3.1"/><circle class="fire" cx="186" cy="437" r="2.5"/><circle class="fire" cx="317" cy="293" r="2.6"/><circle class="fire" cx="196" cy="138" r="2.6"/><circle class="fire" cx="121" cy="420" r="1.8"/><circle class="fire" cx="471" cy="90" r="1.9"/><circle class="fire" cx="201" cy="235" r="2.3"/><circle class="fire" cx="490" cy="148" r="2.3"/><circle class="fire" cx="342" cy="191" r="3.1"/><circle class="fire" cx="702" cy="101" r="2.8"/><circle class="fire" cx="515" cy="404" r="2.2"/><circle class="fire" cx="380" cy="179" r="1.8"/>

  <rect x="32" y="26" width="736" height="468" rx="26" class="frame" filter="url(#shadow)"/>

  <text x="56" y="66" class="micro">SwampHop • Sweetheart Bayou</text>
  <text x="56" y="484" class="tiny">River Letter</text>
  <text x="56" y="506" class="micro">Words float back to you.</text>

  <g filter="url(#swampNoise)"><rect width="800" height="520" fill="transparent"/></g>
</svg>
