<svg xmlns="http://www.w3.org/2000/svg" width="800" height="520" viewBox="0 0 800 520">

  <defs>
    <linearGradient id="gMain" x1="0" y1="0" x2="1" y2="1">
      <stop offset="0" stop-color="#07110e"/>
      <stop offset="1" stop-color="#0b1f18"/>
    </linearGradient>

    <radialGradient id="gGlow" cx="50%" cy="40%" r="70%">
      <stop offset="0" stop-color="#00e7ff" stop-opacity="0.22"/>
      <stop offset="0.55" stop-color="#ff4fd8" stop-opacity="0.10"/>
      <stop offset="1" stop-color="#07110e" stop-opacity="0"/>
    </radialGradient>

    <linearGradient id="gNeon" x1="0" y1="1" x2="1" y2="0">
      <stop offset="0" stop-color="#ff4fd8"/>
      <stop offset="1" stop-color="#2cff9a"/>
    </linearGradient>

    <filter id="shadow" x="-30%" y="-30%" width="160%" height="160%">
      <feDropShadow dx="0" dy="10" stdDeviation="18" flood-color="#000" flood-opacity="0.55"/>
    </filter>

    <filter id="swampNoise" x="-20%" y="-20%" width="140%" height="140%">
      <feTurbulence type="fractalNoise" baseFrequency="0.85" numOctaves="2" seed="1851" result="n"/>
      <feColorMatrix in="n" type="matrix"
        values="0.2 0 0 0 0
                0 0.35 0 0 0
                0 0 0.3 0 0
                0 0 0 0.35 0" result="t"/>
      <feComposite in="t" in2="SourceGraphic" operator="overlay"/>
    </filter>

    <filter id="goo" x="-20%" y="-20%" width="140%" height="140%">
      <feGaussianBlur in="SourceGraphic" stdDeviation="1.8" result="b"/>
      <feColorMatrix in="b" type="matrix"
        values="1 0 0 0 0
                0 1 0 0 0
                0 0 1 0 0
                0 0 0 18 -7" result="g"/>
      <feComposite in="g" in2="SourceGraphic" operator="atop"/>
    </filter>

    <style>
      .frame { fill: rgba(255,255,255,0.04); stroke: rgba(255,255,255,0.14); stroke-width: 2; }
      .tiny { font-family: ui-sans-serif, system-ui, -apple-system, Segoe UI, Roboto, Helvetica, Arial; font-size: 16px; fill: rgba(255,255,255,0.72); letter-spacing: 0.2px; }
      .micro { font-family: ui-sans-serif, system-ui; font-size: 13px; fill: rgba(255,255,255,0.58); }
      .neon { fill: none; stroke: url(#gNeon); stroke-width: 6; stroke-linecap: round; stroke-linejoin: round; filter: url(#goo); opacity: 0.92; }
      .neon2 { fill: none; stroke: rgba(0,231,255,0.8); stroke-width: 2.6; stroke-linecap: round; opacity: 0.7; }
      .mist { fill: rgba(167,255,216,0.08); }
      .fire { fill: #ffcf4d; opacity: 0.85; }
    </style>
  </defs>

  <rect width="800" height="520" fill="url(#gMain)"/>
  <rect width="800" height="520" fill="url(#gGlow)"/>

  <circle cx="190" cy="210" r="142" fill="#ff4fd8" opacity="0.10"/>
  <circle cx="171" cy="248" r="127" fill="#00e7ff" opacity="0.10"/>

  <circle cx="490" cy="85" r="64" fill="#d8e7ff" opacity="0.16"/>
  <circle cx="506.0" cy="72.2" r="22.4" fill="#d8e7ff" opacity="0.07"/>

  <path class="mist" d="M0 277 C200 247 420 307 800 267 L800 317 C420 347 200 297 0 327 Z"/>
  <path class="mist" d="M0 377 C220 347 440 407 800 367 L800 422 C440 457 220 397 0 432 Z"/>

  <path d="M173 481 C125.6 451.0, 145.35 391.0, 173 361 C200.65 391.0, 220.4 451.0, 173 481 Z" fill="rgba(0,0,0,0.35)"/><path d="M505 442 C451.0 391.5, 473.5 290.5, 505 240 C536.5 290.5, 559.0 391.5, 505 442 Z" fill="rgba(0,0,0,0.35)"/><path d="M70 370 C33.4 326.25, 48.650000000000006 238.75, 70 195 C91.35 238.75, 106.6 326.25, 70 370 Z" fill="rgba(0,0,0,0.35)"/>

  <path class="neon" d="M 104.0 337.0 L 153.3 337.0 L 202.7 337.0 L 252.0 337.0 L 301.3 337.0 L 350.7 337.0 L 400.0 337.0 L 449.3 337.0 L 498.7 337.0 L 548.0 337.0 L 597.3 337.0 L 646.7 337.0 L 696.0 337.0 "/>
  
  
  <path class="neon2" d="M70 90 L70 60 L100 60"/>
  <path class="neon2" d="M730 90 L730 60 L700 60"/>
  <path class="neon2" d="M70 430 L70 460 L100 460"/>
  <path class="neon2" d="M730 430 L730 460 L700 460"/>


  <circle class="fire" cx="61" cy="152" r="2.9"/><circle class="fire" cx="500" cy="364" r="3.0"/><circle class="fire" cx="329" cy="97" r="2.7"/><circle class="fire" cx="326" cy="177" r="2.8"/><circle class="fire" cx="628" cy="299" r="1.6"/><circle class="fire" cx="725" cy="302" r="2.2"/><circle class="fire" cx="648" cy="194" r="1.6"/><circle class="fire" cx="417" cy="114" r="1.6"/><circle class="fire" cx="520" cy="426" r="2.8"/><circle class="fire" cx="94" cy="408" r="2.1"/><circle class="fire" cx="64" cy="213" r="1.7"/><circle class="fire" cx="148" cy="212" r="1.9"/><circle class="fire" cx="101" cy="331" r="1.9"/><circle class="fire" cx="195" cy="102" r="3.1"/><circle class="fire" cx="175" cy="210" r="2.6"/>

  <rect x="32" y="26" width="736" height="468" rx="26" class="frame" filter="url(#shadow)"/>

  <text x="56" y="66" class="micro">SwampHop • Sweetheart Bayou</text>
  <text x="56" y="484" class="tiny">Glowstick Gospel</text>
  <text x="56" y="506" class="micro">Bright faith, dark water.</text>

  <g filter="url(#swampNoise)"><rect width="800" height="520" fill="transparent"/></g>
</svg>
