<svg xmlns="http://www.w3.org/2000/svg" width="800" height="520" viewBox="0 0 800 520">

  <defs>
    <linearGradient id="gMain" x1="0" y1="0" x2="1" y2="1">
      <stop offset="0" stop-color="#07110e"/>
      <stop offset="1" stop-color="#0b1f18"/>
    </linearGradient>

    <radialGradient id="gGlow" cx="50%" cy="40%" r="70%">
      <stop offset="0" stop-color="#00e7ff" stop-opacity="0.22"/>
      <stop offset="0.55" stop-color="#ff4fd8" stop-opacity="0.10"/>
      <stop offset="1" stop-color="#07110e" stop-opacity="0"/>
    </radialGradient>

    <linearGradient id="gNeon" x1="0" y1="1" x2="1" y2="0">
      <stop offset="0" stop-color="#ff4fd8"/>
      <stop offset="1" stop-color="#2cff9a"/>
    </linearGradient>

    <filter id="shadow" x="-30%" y="-30%" width="160%" height="160%">
      <feDropShadow dx="0" dy="10" stdDeviation="18" flood-color="#000" flood-opacity="0.55"/>
    </filter>

    <filter id="swampNoise" x="-20%" y="-20%" width="140%" height="140%">
      <feTurbulence type="fractalNoise" baseFrequency="0.85" numOctaves="2" seed="1666" result="n"/>
      <feColorMatrix in="n" type="matrix"
        values="0.2 0 0 0 0
                0 0.35 0 0 0
                0 0 0.3 0 0
                0 0 0 0.35 0" result="t"/>
      <feComposite in="t" in2="SourceGraphic" operator="overlay"/>
    </filter>

    <filter id="goo" x="-20%" y="-20%" width="140%" height="140%">
      <feGaussianBlur in="SourceGraphic" stdDeviation="1.8" result="b"/>
      <feColorMatrix in="b" type="matrix"
        values="1 0 0 0 0
                0 1 0 0 0
                0 0 1 0 0
                0 0 0 18 -7" result="g"/>
      <feComposite in="g" in2="SourceGraphic" operator="atop"/>
    </filter>

    <style>
      .frame { fill: rgba(255,255,255,0.04); stroke: rgba(255,255,255,0.14); stroke-width: 2; }
      .tiny { font-family: ui-sans-serif, system-ui, -apple-system, Segoe UI, Roboto, Helvetica, Arial; font-size: 16px; fill: rgba(255,255,255,0.72); letter-spacing: 0.2px; }
      .micro { font-family: ui-sans-serif, system-ui; font-size: 13px; fill: rgba(255,255,255,0.58); }
      .neon { fill: none; stroke: url(#gNeon); stroke-width: 6; stroke-linecap: round; stroke-linejoin: round; filter: url(#goo); opacity: 0.92; }
      .neon2 { fill: none; stroke: rgba(0,231,255,0.8); stroke-width: 2.6; stroke-linecap: round; opacity: 0.7; }
      .mist { fill: rgba(167,255,216,0.08); }
      .fire { fill: #ffcf4d; opacity: 0.85; }
    </style>
  </defs>

  <rect width="800" height="520" fill="url(#gMain)"/>
  <rect width="800" height="520" fill="url(#gGlow)"/>

  <circle cx="675" cy="256" r="93" fill="#ff4fd8" opacity="0.10"/>
  <circle cx="672" cy="324" r="104" fill="#00e7ff" opacity="0.10"/>

  <circle cx="658" cy="166" r="59" fill="#d8e7ff" opacity="0.16"/>
  <circle cx="672.8" cy="154.2" r="20.6" fill="#d8e7ff" opacity="0.07"/>

  <path class="mist" d="M0 191 C200 161 420 221 800 181 L800 231 C420 261 200 211 0 241 Z"/>
  <path class="mist" d="M0 291 C220 261 440 321 800 281 L800 336 C440 371 220 311 0 346 Z"/>

  <path d="M597 480 C540.0 436.75, 563.75 350.25, 597 307 C630.25 350.25, 654.0 436.75, 597 480 Z" fill="rgba(0,0,0,0.35)"/><path d="M324 415 C279.0 362.5, 297.75 257.5, 324 205 C350.25 257.5, 369.0 362.5, 324 415 Z" fill="rgba(0,0,0,0.35)"/><path d="M532 397 C481.6 344.75, 502.6 240.25, 532 188 C561.4 240.25, 582.4 344.75, 532 397 Z" fill="rgba(0,0,0,0.35)"/>

  <path class="neon" d="M 177.0 251.0 L 214.2 251.0 L 251.3 251.0 L 288.5 251.0 L 325.7 251.0 L 362.8 251.0 L 400.0 251.0 L 437.2 251.0 L 474.3 251.0 L 511.5 251.0 L 548.7 251.0 L 585.8 251.0 L 623.0 251.0 "/>
  <path class="neon" d="M 388 292.8253743821144 C 307.5238768536569 230.23283415718083, 343.29104269647604 158.6985024715425, 388 203.40745977506646 C 432.70895730352396 158.6985024715425, 468.4761231463431 230.23283415718083, 388 292.8253743821144 Z"/>
  
  <path class="neon2" d="M70 90 L70 60 L100 60"/>
  <path class="neon2" d="M730 90 L730 60 L700 60"/>
  <path class="neon2" d="M70 430 L70 460 L100 460"/>
  <path class="neon2" d="M730 430 L730 460 L700 460"/>


  <circle class="fire" cx="83" cy="326" r="2.3"/><circle class="fire" cx="319" cy="352" r="2.3"/><circle class="fire" cx="166" cy="125" r="2.1"/><circle class="fire" cx="666" cy="147" r="2.4"/><circle class="fire" cx="316" cy="285" r="2.6"/><circle class="fire" cx="395" cy="313" r="2.0"/><circle class="fire" cx="139" cy="274" r="3.1"/><circle class="fire" cx="622" cy="391" r="1.6"/><circle class="fire" cx="664" cy="197" r="2.5"/><circle class="fire" cx="282" cy="460" r="1.8"/><circle class="fire" cx="173" cy="371" r="1.9"/><circle class="fire" cx="468" cy="180" r="2.2"/><circle class="fire" cx="267" cy="287" r="2.5"/><circle class="fire" cx="609" cy="434" r="1.9"/><circle class="fire" cx="429" cy="307" r="2.7"/><circle class="fire" cx="270" cy="263" r="1.5"/>

  <rect x="32" y="26" width="736" height="468" rx="26" class="frame" filter="url(#shadow)"/>

  <text x="56" y="66" class="micro">SwampHop • Sweetheart Bayou</text>
  <text x="56" y="484" class="tiny">Mossy Halo</text>
  <text x="56" y="506" class="micro">Saints in the swamp.</text>

  <g filter="url(#swampNoise)"><rect width="800" height="520" fill="transparent"/></g>
</svg>
