<svg xmlns="http://www.w3.org/2000/svg" width="800" height="520" viewBox="0 0 800 520">

  <defs>
    <linearGradient id="gMain" x1="0" y1="0" x2="1" y2="1">
      <stop offset="0" stop-color="#07110e"/>
      <stop offset="1" stop-color="#0b1f18"/>
    </linearGradient>

    <radialGradient id="gGlow" cx="50%" cy="40%" r="70%">
      <stop offset="0" stop-color="#00e7ff" stop-opacity="0.22"/>
      <stop offset="0.55" stop-color="#ff4fd8" stop-opacity="0.10"/>
      <stop offset="1" stop-color="#07110e" stop-opacity="0"/>
    </radialGradient>

    <linearGradient id="gNeon" x1="0" y1="1" x2="1" y2="0">
      <stop offset="0" stop-color="#ff4fd8"/>
      <stop offset="1" stop-color="#2cff9a"/>
    </linearGradient>

    <filter id="shadow" x="-30%" y="-30%" width="160%" height="160%">
      <feDropShadow dx="0" dy="10" stdDeviation="18" flood-color="#000" flood-opacity="0.55"/>
    </filter>

    <filter id="swampNoise" x="-20%" y="-20%" width="140%" height="140%">
      <feTurbulence type="fractalNoise" baseFrequency="0.85" numOctaves="2" seed="1629" result="n"/>
      <feColorMatrix in="n" type="matrix"
        values="0.2 0 0 0 0
                0 0.35 0 0 0
                0 0 0.3 0 0
                0 0 0 0.35 0" result="t"/>
      <feComposite in="t" in2="SourceGraphic" operator="overlay"/>
    </filter>

    <filter id="goo" x="-20%" y="-20%" width="140%" height="140%">
      <feGaussianBlur in="SourceGraphic" stdDeviation="1.8" result="b"/>
      <feColorMatrix in="b" type="matrix"
        values="1 0 0 0 0
                0 1 0 0 0
                0 0 1 0 0
                0 0 0 18 -7" result="g"/>
      <feComposite in="g" in2="SourceGraphic" operator="atop"/>
    </filter>

    <style>
      .frame { fill: rgba(255,255,255,0.04); stroke: rgba(255,255,255,0.14); stroke-width: 2; }
      .tiny { font-family: ui-sans-serif, system-ui, -apple-system, Segoe UI, Roboto, Helvetica, Arial; font-size: 16px; fill: rgba(255,255,255,0.72); letter-spacing: 0.2px; }
      .micro { font-family: ui-sans-serif, system-ui; font-size: 13px; fill: rgba(255,255,255,0.58); }
      .neon { fill: none; stroke: url(#gNeon); stroke-width: 6; stroke-linecap: round; stroke-linejoin: round; filter: url(#goo); opacity: 0.92; }
      .neon2 { fill: none; stroke: rgba(0,231,255,0.8); stroke-width: 2.6; stroke-linecap: round; opacity: 0.7; }
      .mist { fill: rgba(167,255,216,0.08); }
      .fire { fill: #ffcf4d; opacity: 0.85; }
    </style>
  </defs>

  <rect width="800" height="520" fill="url(#gMain)"/>
  <rect width="800" height="520" fill="url(#gGlow)"/>

  <circle cx="280" cy="154" r="107" fill="#ff4fd8" opacity="0.10"/>
  <circle cx="318" cy="290" r="121" fill="#00e7ff" opacity="0.10"/>

  <circle cx="550" cy="147" r="39" fill="#d8e7ff" opacity="0.16"/>
  <circle cx="559.8" cy="139.2" r="13.6" fill="#d8e7ff" opacity="0.07"/>

  <path class="mist" d="M0 247 C200 217 420 277 800 237 L800 287 C420 317 200 267 0 297 Z"/>
  <path class="mist" d="M0 347 C220 317 440 377 800 337 L800 392 C440 427 220 367 0 402 Z"/>

  <path d="M440 470 C385.4 427.0, 408.15 341.0, 440 298 C471.85 341.0, 494.6 427.0, 440 470 Z" fill="rgba(0,0,0,0.35)"/><path d="M563 494 C497.0 441.75, 524.5 337.25, 563 285 C601.5 337.25, 629.0 441.75, 563 494 Z" fill="rgba(0,0,0,0.35)"/><path d="M155 477 C110.6 429.25, 129.1 333.75, 155 286 C180.9 333.75, 199.4 429.25, 155 477 Z" fill="rgba(0,0,0,0.35)"/>

  
  <path class="neon" d="M 374 283.17915889479025 C 292.46252331562926 219.761121473613, 328.70140184201625 147.28336442083898, 374 192.58196257882275 C 419.29859815798375 147.28336442083898, 455.53747668437074 219.761121473613, 374 283.17915889479025 Z"/>
  
  <path class="neon2" d="M70 90 L70 60 L100 60"/>
  <path class="neon2" d="M730 90 L730 60 L700 60"/>
  <path class="neon2" d="M70 430 L70 460 L100 460"/>
  <path class="neon2" d="M730 430 L730 460 L700 460"/>


  <circle class="fire" cx="702" cy="143" r="2.3"/><circle class="fire" cx="229" cy="187" r="1.8"/><circle class="fire" cx="414" cy="287" r="2.3"/><circle class="fire" cx="714" cy="407" r="3.1"/><circle class="fire" cx="309" cy="187" r="1.5"/><circle class="fire" cx="120" cy="169" r="1.7"/><circle class="fire" cx="604" cy="122" r="1.8"/><circle class="fire" cx="593" cy="396" r="2.3"/><circle class="fire" cx="181" cy="132" r="2.9"/><circle class="fire" cx="528" cy="429" r="2.8"/><circle class="fire" cx="165" cy="130" r="2.2"/><circle class="fire" cx="79" cy="112" r="2.6"/><circle class="fire" cx="279" cy="391" r="3.1"/><circle class="fire" cx="559" cy="224" r="2.9"/><circle class="fire" cx="230" cy="245" r="3.1"/><circle class="fire" cx="375" cy="127" r="2.4"/><circle class="fire" cx="278" cy="429" r="2.3"/><circle class="fire" cx="534" cy="85" r="2.9"/>

  <rect x="32" y="26" width="736" height="468" rx="26" class="frame" filter="url(#shadow)"/>

  <text x="56" y="66" class="micro">SwampHop • Sweetheart Bayou</text>
  <text x="56" y="484" class="tiny">Wildflower Whiskey</text>
  <text x="56" y="506" class="micro">Soft burn, sweet finish.</text>

  <g filter="url(#swampNoise)"><rect width="800" height="520" fill="transparent"/></g>
</svg>
