<svg xmlns="http://www.w3.org/2000/svg" width="800" height="520" viewBox="0 0 800 520">

  <defs>
    <linearGradient id="gMain" x1="0" y1="0" x2="1" y2="1">
      <stop offset="0" stop-color="#07110e"/>
      <stop offset="1" stop-color="#0b1f18"/>
    </linearGradient>

    <radialGradient id="gGlow" cx="50%" cy="40%" r="70%">
      <stop offset="0" stop-color="#00e7ff" stop-opacity="0.22"/>
      <stop offset="0.55" stop-color="#ff4fd8" stop-opacity="0.10"/>
      <stop offset="1" stop-color="#07110e" stop-opacity="0"/>
    </radialGradient>

    <linearGradient id="gNeon" x1="0" y1="1" x2="1" y2="0">
      <stop offset="0" stop-color="#ff4fd8"/>
      <stop offset="1" stop-color="#2cff9a"/>
    </linearGradient>

    <filter id="shadow" x="-30%" y="-30%" width="160%" height="160%">
      <feDropShadow dx="0" dy="10" stdDeviation="18" flood-color="#000" flood-opacity="0.55"/>
    </filter>

    <filter id="swampNoise" x="-20%" y="-20%" width="140%" height="140%">
      <feTurbulence type="fractalNoise" baseFrequency="0.85" numOctaves="2" seed="1074" result="n"/>
      <feColorMatrix in="n" type="matrix"
        values="0.2 0 0 0 0
                0 0.35 0 0 0
                0 0 0.3 0 0
                0 0 0 0.35 0" result="t"/>
      <feComposite in="t" in2="SourceGraphic" operator="overlay"/>
    </filter>

    <filter id="goo" x="-20%" y="-20%" width="140%" height="140%">
      <feGaussianBlur in="SourceGraphic" stdDeviation="1.8" result="b"/>
      <feColorMatrix in="b" type="matrix"
        values="1 0 0 0 0
                0 1 0 0 0
                0 0 1 0 0
                0 0 0 18 -7" result="g"/>
      <feComposite in="g" in2="SourceGraphic" operator="atop"/>
    </filter>

    <style>
      .frame { fill: rgba(255,255,255,0.04); stroke: rgba(255,255,255,0.14); stroke-width: 2; }
      .tiny { font-family: ui-sans-serif, system-ui, -apple-system, Segoe UI, Roboto, Helvetica, Arial; font-size: 16px; fill: rgba(255,255,255,0.72); letter-spacing: 0.2px; }
      .micro { font-family: ui-sans-serif, system-ui; font-size: 13px; fill: rgba(255,255,255,0.58); }
      .neon { fill: none; stroke: url(#gNeon); stroke-width: 6; stroke-linecap: round; stroke-linejoin: round; filter: url(#goo); opacity: 0.92; }
      .neon2 { fill: none; stroke: rgba(0,231,255,0.8); stroke-width: 2.6; stroke-linecap: round; opacity: 0.7; }
      .mist { fill: rgba(167,255,216,0.08); }
      .fire { fill: #ffcf4d; opacity: 0.85; }
    </style>
  </defs>

  <rect width="800" height="520" fill="url(#gMain)"/>
  <rect width="800" height="520" fill="url(#gGlow)"/>

  <circle cx="169" cy="211" r="99" fill="#ff4fd8" opacity="0.10"/>
  <circle cx="607" cy="193" r="129" fill="#00e7ff" opacity="0.10"/>

  <circle cx="480" cy="110" r="43" fill="#d8e7ff" opacity="0.16"/>
  <circle cx="490.8" cy="101.4" r="15.0" fill="#d8e7ff" opacity="0.07"/>

  <path class="mist" d="M0 251 C200 221 420 281 800 241 L800 291 C420 321 200 271 0 301 Z"/>
  <path class="mist" d="M0 351 C220 321 440 381 800 341 L800 396 C440 431 220 371 0 406 Z"/>

  <path d="M730 482 C690.4 442.0, 706.9 362.0, 730 322 C753.1 362.0, 769.6 442.0, 730 482 Z" fill="rgba(0,0,0,0.35)"/><path d="M243 473 C184.2 425.0, 208.7 329.0, 243 281 C277.3 329.0, 301.8 425.0, 243 473 Z" fill="rgba(0,0,0,0.35)"/><path d="M111 409 C63.0 359.25, 83.0 259.75, 111 210 C139.0 259.75, 159.0 359.25, 111 409 Z" fill="rgba(0,0,0,0.35)"/>

  <path class="neon" d="M 132.0 311.0 L 176.7 311.0 L 221.3 311.0 L 266.0 311.0 L 310.7 311.0 L 355.3 311.0 L 400.0 311.0 L 444.7 311.0 L 489.3 311.0 L 534.0 311.0 L 578.7 311.0 L 623.3 311.0 L 668.0 311.0 "/>
  
  
  <path class="neon2" d="M70 90 L70 60 L100 60"/>
  <path class="neon2" d="M730 90 L730 60 L700 60"/>
  <path class="neon2" d="M70 430 L70 460 L100 460"/>
  <path class="neon2" d="M730 430 L730 460 L700 460"/>


  <circle class="fire" cx="690" cy="206" r="1.7"/><circle class="fire" cx="239" cy="344" r="2.3"/><circle class="fire" cx="383" cy="334" r="1.7"/><circle class="fire" cx="382" cy="395" r="1.9"/><circle class="fire" cx="198" cy="133" r="2.0"/><circle class="fire" cx="604" cy="274" r="3.1"/><circle class="fire" cx="76" cy="279" r="2.7"/><circle class="fire" cx="259" cy="456" r="2.8"/><circle class="fire" cx="443" cy="320" r="1.7"/><circle class="fire" cx="153" cy="80" r="2.5"/><circle class="fire" cx="345" cy="178" r="2.3"/><circle class="fire" cx="158" cy="235" r="1.5"/><circle class="fire" cx="651" cy="227" r="3.1"/><circle class="fire" cx="629" cy="186" r="2.8"/><circle class="fire" cx="305" cy="383" r="2.3"/><circle class="fire" cx="180" cy="267" r="1.7"/><circle class="fire" cx="367" cy="406" r="2.5"/>

  <rect x="32" y="26" width="736" height="468" rx="26" class="frame" filter="url(#shadow)"/>

  <text x="56" y="66" class="micro">SwampHop • Sweetheart Bayou</text>
  <text x="56" y="484" class="tiny">Loyal Love</text>
  <text x="56" y="506" class="micro">Ride-or-die under moonlight.</text>

  <g filter="url(#swampNoise)"><rect width="800" height="520" fill="transparent"/></g>
</svg>
