<svg xmlns="http://www.w3.org/2000/svg" width="800" height="520" viewBox="0 0 800 520">

  <defs>
    <linearGradient id="gMain" x1="0" y1="0" x2="1" y2="1">
      <stop offset="0" stop-color="#07110e"/>
      <stop offset="1" stop-color="#0b1f18"/>
    </linearGradient>

    <radialGradient id="gGlow" cx="50%" cy="40%" r="70%">
      <stop offset="0" stop-color="#00e7ff" stop-opacity="0.22"/>
      <stop offset="0.55" stop-color="#ff4fd8" stop-opacity="0.10"/>
      <stop offset="1" stop-color="#07110e" stop-opacity="0"/>
    </radialGradient>

    <linearGradient id="gNeon" x1="0" y1="1" x2="1" y2="0">
      <stop offset="0" stop-color="#ff4fd8"/>
      <stop offset="1" stop-color="#2cff9a"/>
    </linearGradient>

    <filter id="shadow" x="-30%" y="-30%" width="160%" height="160%">
      <feDropShadow dx="0" dy="10" stdDeviation="18" flood-color="#000" flood-opacity="0.55"/>
    </filter>

    <filter id="swampNoise" x="-20%" y="-20%" width="140%" height="140%">
      <feTurbulence type="fractalNoise" baseFrequency="0.85" numOctaves="2" seed="1888" result="n"/>
      <feColorMatrix in="n" type="matrix"
        values="0.2 0 0 0 0
                0 0.35 0 0 0
                0 0 0.3 0 0
                0 0 0 0.35 0" result="t"/>
      <feComposite in="t" in2="SourceGraphic" operator="overlay"/>
    </filter>

    <filter id="goo" x="-20%" y="-20%" width="140%" height="140%">
      <feGaussianBlur in="SourceGraphic" stdDeviation="1.8" result="b"/>
      <feColorMatrix in="b" type="matrix"
        values="1 0 0 0 0
                0 1 0 0 0
                0 0 1 0 0
                0 0 0 18 -7" result="g"/>
      <feComposite in="g" in2="SourceGraphic" operator="atop"/>
    </filter>

    <style>
      .frame { fill: rgba(255,255,255,0.04); stroke: rgba(255,255,255,0.14); stroke-width: 2; }
      .tiny { font-family: ui-sans-serif, system-ui, -apple-system, Segoe UI, Roboto, Helvetica, Arial; font-size: 16px; fill: rgba(255,255,255,0.72); letter-spacing: 0.2px; }
      .micro { font-family: ui-sans-serif, system-ui; font-size: 13px; fill: rgba(255,255,255,0.58); }
      .neon { fill: none; stroke: url(#gNeon); stroke-width: 6; stroke-linecap: round; stroke-linejoin: round; filter: url(#goo); opacity: 0.92; }
      .neon2 { fill: none; stroke: rgba(0,231,255,0.8); stroke-width: 2.6; stroke-linecap: round; opacity: 0.7; }
      .mist { fill: rgba(167,255,216,0.08); }
      .fire { fill: #ffcf4d; opacity: 0.85; }
    </style>
  </defs>

  <rect width="800" height="520" fill="url(#gMain)"/>
  <rect width="800" height="520" fill="url(#gGlow)"/>

  <circle cx="488" cy="266" r="109" fill="#ff4fd8" opacity="0.10"/>
  <circle cx="666" cy="348" r="101" fill="#00e7ff" opacity="0.10"/>

  <circle cx="591" cy="70" r="43" fill="#d8e7ff" opacity="0.16"/>
  <circle cx="601.8" cy="61.4" r="15.0" fill="#d8e7ff" opacity="0.07"/>

  <path class="mist" d="M0 276 C200 246 420 306 800 266 L800 316 C420 346 200 296 0 326 Z"/>
  <path class="mist" d="M0 376 C220 346 440 406 800 366 L800 421 C440 456 220 396 0 431 Z"/>

  <path d="M643 452 C586.0 415.0, 609.75 341.0, 643 304 C676.25 341.0, 700.0 415.0, 643 452 Z" fill="rgba(0,0,0,0.35)"/><path d="M347 384 C293.6 343.5, 315.85 262.5, 347 222 C378.15 262.5, 400.4 343.5, 347 384 Z" fill="rgba(0,0,0,0.35)"/><path d="M507 391 C444.6 357.5, 470.6 290.5, 507 257 C543.4 290.5, 569.4 357.5, 507 391 Z" fill="rgba(0,0,0,0.35)"/><path d="M309 400 C268.2 352.0, 285.2 256.0, 309 208 C332.8 256.0, 349.8 352.0, 309 400 Z" fill="rgba(0,0,0,0.35)"/>

  <path class="neon" d="M 185.0 336.0 L 220.8 336.0 L 256.5 336.0 L 292.2 336.0 L 328.0 336.0 L 363.8 336.0 L 399.5 336.0 L 435.2 336.0 L 471.0 336.0 L 506.8 336.0 L 542.5 336.0 L 578.2 336.0 L 614.0 336.0 "/>
  <path class="neon" d="M 323 318.03641939294357 C 247.89074182116934 259.6181074760753, 281.2726343450941 192.85432242822583, 323 234.58168808313172 C 364.7273656549059 192.85432242822583, 398.10925817883066 259.6181074760753, 323 318.03641939294357 Z"/>
  
  <path class="neon2" d="M70 90 L70 60 L100 60"/>
  <path class="neon2" d="M730 90 L730 60 L700 60"/>
  <path class="neon2" d="M70 430 L70 460 L100 460"/>
  <path class="neon2" d="M730 430 L730 460 L700 460"/>


  <circle class="fire" cx="701" cy="189" r="1.5"/><circle class="fire" cx="416" cy="164" r="2.7"/><circle class="fire" cx="617" cy="446" r="2.5"/><circle class="fire" cx="371" cy="95" r="3.1"/><circle class="fire" cx="644" cy="197" r="1.9"/><circle class="fire" cx="387" cy="449" r="2.2"/><circle class="fire" cx="580" cy="268" r="2.0"/><circle class="fire" cx="450" cy="129" r="1.8"/><circle class="fire" cx="393" cy="270" r="1.7"/><circle class="fire" cx="291" cy="439" r="2.1"/><circle class="fire" cx="125" cy="247" r="2.5"/><circle class="fire" cx="616" cy="178" r="2.7"/><circle class="fire" cx="244" cy="312" r="2.9"/><circle class="fire" cx="400" cy="362" r="2.2"/><circle class="fire" cx="704" cy="341" r="1.9"/>

  <rect x="32" y="26" width="736" height="468" rx="26" class="frame" filter="url(#shadow)"/>

  <text x="56" y="66" class="micro">SwampHop • Sweetheart Bayou</text>
  <text x="56" y="484" class="tiny">Sweetheart Bayou</text>
  <text x="56" y="506" class="micro">Unmistakably SwampHop.</text>

  <g filter="url(#swampNoise)"><rect width="800" height="520" fill="transparent"/></g>
</svg>
