<svg xmlns="http://www.w3.org/2000/svg" width="800" height="520" viewBox="0 0 800 520">

  <defs>
    <linearGradient id="gMain" x1="0" y1="0" x2="1" y2="1">
      <stop offset="0" stop-color="#07110e"/>
      <stop offset="1" stop-color="#0b1f18"/>
    </linearGradient>

    <radialGradient id="gGlow" cx="50%" cy="40%" r="70%">
      <stop offset="0" stop-color="#00e7ff" stop-opacity="0.22"/>
      <stop offset="0.55" stop-color="#ff4fd8" stop-opacity="0.10"/>
      <stop offset="1" stop-color="#07110e" stop-opacity="0"/>
    </radialGradient>

    <linearGradient id="gNeon" x1="0" y1="1" x2="1" y2="0">
      <stop offset="0" stop-color="#ff4fd8"/>
      <stop offset="1" stop-color="#2cff9a"/>
    </linearGradient>

    <filter id="shadow" x="-30%" y="-30%" width="160%" height="160%">
      <feDropShadow dx="0" dy="10" stdDeviation="18" flood-color="#000" flood-opacity="0.55"/>
    </filter>

    <filter id="swampNoise" x="-20%" y="-20%" width="140%" height="140%">
      <feTurbulence type="fractalNoise" baseFrequency="0.85" numOctaves="2" seed="1518" result="n"/>
      <feColorMatrix in="n" type="matrix"
        values="0.2 0 0 0 0
                0 0.35 0 0 0
                0 0 0.3 0 0
                0 0 0 0.35 0" result="t"/>
      <feComposite in="t" in2="SourceGraphic" operator="overlay"/>
    </filter>

    <filter id="goo" x="-20%" y="-20%" width="140%" height="140%">
      <feGaussianBlur in="SourceGraphic" stdDeviation="1.8" result="b"/>
      <feColorMatrix in="b" type="matrix"
        values="1 0 0 0 0
                0 1 0 0 0
                0 0 1 0 0
                0 0 0 18 -7" result="g"/>
      <feComposite in="g" in2="SourceGraphic" operator="atop"/>
    </filter>

    <style>
      .frame { fill: rgba(255,255,255,0.04); stroke: rgba(255,255,255,0.14); stroke-width: 2; }
      .tiny { font-family: ui-sans-serif, system-ui, -apple-system, Segoe UI, Roboto, Helvetica, Arial; font-size: 16px; fill: rgba(255,255,255,0.72); letter-spacing: 0.2px; }
      .micro { font-family: ui-sans-serif, system-ui; font-size: 13px; fill: rgba(255,255,255,0.58); }
      .neon { fill: none; stroke: url(#gNeon); stroke-width: 6; stroke-linecap: round; stroke-linejoin: round; filter: url(#goo); opacity: 0.92; }
      .neon2 { fill: none; stroke: rgba(0,231,255,0.8); stroke-width: 2.6; stroke-linecap: round; opacity: 0.7; }
      .mist { fill: rgba(167,255,216,0.08); }
      .fire { fill: #ffcf4d; opacity: 0.85; }
    </style>
  </defs>

  <rect width="800" height="520" fill="url(#gMain)"/>
  <rect width="800" height="520" fill="url(#gGlow)"/>

  <circle cx="376" cy="261" r="102" fill="#ff4fd8" opacity="0.10"/>
  <circle cx="181" cy="212" r="142" fill="#00e7ff" opacity="0.10"/>

  <circle cx="296" cy="133" r="61" fill="#d8e7ff" opacity="0.16"/>
  <circle cx="311.2" cy="120.8" r="21.3" fill="#d8e7ff" opacity="0.07"/>

  <path class="mist" d="M0 267 C200 237 420 297 800 257 L800 307 C420 337 200 287 0 317 Z"/>
  <path class="mist" d="M0 367 C220 337 440 397 800 357 L800 412 C440 447 220 387 0 422 Z"/>

  <path d="M431 364 C373.4 326.5, 397.4 251.5, 431 214 C464.6 251.5, 488.6 326.5, 431 364 Z" fill="rgba(0,0,0,0.35)"/><path d="M473 381 C429.8 347.25, 447.8 279.75, 473 246 C498.2 279.75, 516.2 347.25, 473 381 Z" fill="rgba(0,0,0,0.35)"/>

  <path class="neon" d="M 151.0 327.0 L 192.4 327.0 L 233.8 327.0 L 275.2 327.0 L 316.7 327.0 L 358.1 327.0 L 399.5 327.0 L 440.9 327.0 L 482.3 327.0 L 523.8 327.0 L 565.2 327.0 L 606.6 327.0 L 648.0 327.0 "/>
  
  
  <path class="neon2" d="M70 90 L70 60 L100 60"/>
  <path class="neon2" d="M730 90 L730 60 L700 60"/>
  <path class="neon2" d="M70 430 L70 460 L100 460"/>
  <path class="neon2" d="M730 430 L730 460 L700 460"/>


  <circle class="fire" cx="464" cy="439" r="2.7"/><circle class="fire" cx="155" cy="262" r="2.1"/><circle class="fire" cx="88" cy="186" r="3.1"/><circle class="fire" cx="67" cy="279" r="3.2"/><circle class="fire" cx="467" cy="318" r="3.0"/><circle class="fire" cx="615" cy="90" r="3.2"/><circle class="fire" cx="557" cy="149" r="2.1"/><circle class="fire" cx="250" cy="218" r="2.7"/><circle class="fire" cx="600" cy="223" r="2.3"/><circle class="fire" cx="123" cy="179" r="3.1"/><circle class="fire" cx="106" cy="435" r="3.1"/><circle class="fire" cx="737" cy="159" r="3.1"/>

  <rect x="32" y="26" width="736" height="468" rx="26" class="frame" filter="url(#shadow)"/>

  <text x="56" y="66" class="micro">SwampHop • Sweetheart Bayou</text>
  <text x="56" y="484" class="tiny">Lantern Lullaby</text>
  <text x="56" y="506" class="micro">Warm glow, calm pulse.</text>

  <g filter="url(#swampNoise)"><rect width="800" height="520" fill="transparent"/></g>
</svg>
