<svg xmlns="http://www.w3.org/2000/svg" width="800" height="520" viewBox="0 0 800 520">

  <defs>
    <linearGradient id="gMain" x1="0" y1="0" x2="1" y2="1">
      <stop offset="0" stop-color="#07110e"/>
      <stop offset="1" stop-color="#0b1f18"/>
    </linearGradient>

    <radialGradient id="gGlow" cx="50%" cy="40%" r="70%">
      <stop offset="0" stop-color="#00e7ff" stop-opacity="0.22"/>
      <stop offset="0.55" stop-color="#ff4fd8" stop-opacity="0.10"/>
      <stop offset="1" stop-color="#07110e" stop-opacity="0"/>
    </radialGradient>

    <linearGradient id="gNeon" x1="0" y1="1" x2="1" y2="0">
      <stop offset="0" stop-color="#ff4fd8"/>
      <stop offset="1" stop-color="#2cff9a"/>
    </linearGradient>

    <filter id="shadow" x="-30%" y="-30%" width="160%" height="160%">
      <feDropShadow dx="0" dy="10" stdDeviation="18" flood-color="#000" flood-opacity="0.55"/>
    </filter>

    <filter id="swampNoise" x="-20%" y="-20%" width="140%" height="140%">
      <feTurbulence type="fractalNoise" baseFrequency="0.85" numOctaves="2" seed="1037" result="n"/>
      <feColorMatrix in="n" type="matrix"
        values="0.2 0 0 0 0
                0 0.35 0 0 0
                0 0 0.3 0 0
                0 0 0 0.35 0" result="t"/>
      <feComposite in="t" in2="SourceGraphic" operator="overlay"/>
    </filter>

    <filter id="goo" x="-20%" y="-20%" width="140%" height="140%">
      <feGaussianBlur in="SourceGraphic" stdDeviation="1.8" result="b"/>
      <feColorMatrix in="b" type="matrix"
        values="1 0 0 0 0
                0 1 0 0 0
                0 0 1 0 0
                0 0 0 18 -7" result="g"/>
      <feComposite in="g" in2="SourceGraphic" operator="atop"/>
    </filter>

    <style>
      .frame { fill: rgba(255,255,255,0.04); stroke: rgba(255,255,255,0.14); stroke-width: 2; }
      .tiny { font-family: ui-sans-serif, system-ui, -apple-system, Segoe UI, Roboto, Helvetica, Arial; font-size: 16px; fill: rgba(255,255,255,0.72); letter-spacing: 0.2px; }
      .micro { font-family: ui-sans-serif, system-ui; font-size: 13px; fill: rgba(255,255,255,0.58); }
      .neon { fill: none; stroke: url(#gNeon); stroke-width: 6; stroke-linecap: round; stroke-linejoin: round; filter: url(#goo); opacity: 0.92; }
      .neon2 { fill: none; stroke: rgba(0,231,255,0.8); stroke-width: 2.6; stroke-linecap: round; opacity: 0.7; }
      .mist { fill: rgba(167,255,216,0.08); }
      .fire { fill: #ffcf4d; opacity: 0.85; }
    </style>
  </defs>

  <rect width="800" height="520" fill="url(#gMain)"/>
  <rect width="800" height="520" fill="url(#gGlow)"/>

  <circle cx="624" cy="195" r="95" fill="#ff4fd8" opacity="0.10"/>
  <circle cx="138" cy="320" r="106" fill="#00e7ff" opacity="0.10"/>

  <circle cx="176" cy="126" r="59" fill="#d8e7ff" opacity="0.16"/>
  <circle cx="190.8" cy="114.2" r="20.6" fill="#d8e7ff" opacity="0.07"/>

  <path class="mist" d="M0 264 C200 234 420 294 800 254 L800 304 C420 334 200 284 0 314 Z"/>
  <path class="mist" d="M0 364 C220 334 440 394 800 354 L800 409 C440 444 220 384 0 419 Z"/>

  <path d="M367 370 C328.6 323.0, 344.6 229.0, 367 182 C389.4 229.0, 405.4 323.0, 367 370 Z" fill="rgba(0,0,0,0.35)"/><path d="M414 458 C368.4 427.0, 387.4 365.0, 414 334 C440.6 365.0, 459.6 427.0, 414 458 Z" fill="rgba(0,0,0,0.35)"/><path d="M381 361 C329.4 319.0, 350.9 235.0, 381 193 C411.1 235.0, 432.6 319.0, 381 361 Z" fill="rgba(0,0,0,0.35)"/><path d="M725 422 C674.0 387.0, 695.25 317.0, 725 282 C754.75 317.0, 776.0 387.0, 725 422 Z" fill="rgba(0,0,0,0.35)"/>

  <path class="neon" d="M 172.0 324.0 L 209.9 324.0 L 247.8 324.0 L 285.8 324.0 L 323.7 324.0 L 361.6 324.0 L 399.5 324.0 L 437.4 324.0 L 475.3 324.0 L 513.2 324.0 L 551.2 324.0 L 589.1 324.0 L 627.0 324.0 "/>
  <path class="neon" d="M 441 284.91176009255435 C 363.2647197223371 224.4509865432609, 397.81373317907617 155.35295962978273, 441 198.5392264507066 C 484.18626682092383 155.35295962978273, 518.7352802776629 224.4509865432609, 441 284.91176009255435 Z"/>
  
  <path class="neon2" d="M70 90 L70 60 L100 60"/>
  <path class="neon2" d="M730 90 L730 60 L700 60"/>
  <path class="neon2" d="M70 430 L70 460 L100 460"/>
  <path class="neon2" d="M730 430 L730 460 L700 460"/>


  <circle class="fire" cx="248" cy="363" r="2.1"/><circle class="fire" cx="244" cy="198" r="2.5"/><circle class="fire" cx="478" cy="321" r="2.3"/><circle class="fire" cx="194" cy="128" r="2.0"/><circle class="fire" cx="397" cy="307" r="2.1"/><circle class="fire" cx="457" cy="446" r="1.6"/><circle class="fire" cx="687" cy="198" r="1.8"/><circle class="fire" cx="315" cy="373" r="2.9"/><circle class="fire" cx="280" cy="321" r="3.2"/><circle class="fire" cx="674" cy="246" r="2.8"/><circle class="fire" cx="367" cy="341" r="1.7"/><circle class="fire" cx="719" cy="289" r="2.0"/><circle class="fire" cx="62" cy="334" r="3.0"/><circle class="fire" cx="543" cy="80" r="2.6"/><circle class="fire" cx="568" cy="243" r="2.7"/>

  <rect x="32" y="26" width="736" height="468" rx="26" class="frame" filter="url(#shadow)"/>

  <text x="56" y="66" class="micro">SwampHop • Sweetheart Bayou</text>
  <text x="56" y="484" class="tiny">Bayou Beats</text>
  <text x="56" y="506" class="micro">808 ripples in the water.</text>

  <g filter="url(#swampNoise)"><rect width="800" height="520" fill="transparent"/></g>
</svg>
