<svg xmlns="http://www.w3.org/2000/svg" width="800" height="520" viewBox="0 0 800 520">

  <defs>
    <linearGradient id="gMain" x1="0" y1="0" x2="1" y2="1">
      <stop offset="0" stop-color="#07110e"/>
      <stop offset="1" stop-color="#0b1f18"/>
    </linearGradient>

    <radialGradient id="gGlow" cx="50%" cy="40%" r="70%">
      <stop offset="0" stop-color="#00e7ff" stop-opacity="0.22"/>
      <stop offset="0.55" stop-color="#ff4fd8" stop-opacity="0.10"/>
      <stop offset="1" stop-color="#07110e" stop-opacity="0"/>
    </radialGradient>

    <linearGradient id="gNeon" x1="0" y1="1" x2="1" y2="0">
      <stop offset="0" stop-color="#ff4fd8"/>
      <stop offset="1" stop-color="#2cff9a"/>
    </linearGradient>

    <filter id="shadow" x="-30%" y="-30%" width="160%" height="160%">
      <feDropShadow dx="0" dy="10" stdDeviation="18" flood-color="#000" flood-opacity="0.55"/>
    </filter>

    <filter id="swampNoise" x="-20%" y="-20%" width="140%" height="140%">
      <feTurbulence type="fractalNoise" baseFrequency="0.85" numOctaves="2" seed="1370" result="n"/>
      <feColorMatrix in="n" type="matrix"
        values="0.2 0 0 0 0
                0 0.35 0 0 0
                0 0 0.3 0 0
                0 0 0 0.35 0" result="t"/>
      <feComposite in="t" in2="SourceGraphic" operator="overlay"/>
    </filter>

    <filter id="goo" x="-20%" y="-20%" width="140%" height="140%">
      <feGaussianBlur in="SourceGraphic" stdDeviation="1.8" result="b"/>
      <feColorMatrix in="b" type="matrix"
        values="1 0 0 0 0
                0 1 0 0 0
                0 0 1 0 0
                0 0 0 18 -7" result="g"/>
      <feComposite in="g" in2="SourceGraphic" operator="atop"/>
    </filter>

    <style>
      .frame { fill: rgba(255,255,255,0.04); stroke: rgba(255,255,255,0.14); stroke-width: 2; }
      .tiny { font-family: ui-sans-serif, system-ui, -apple-system, Segoe UI, Roboto, Helvetica, Arial; font-size: 16px; fill: rgba(255,255,255,0.72); letter-spacing: 0.2px; }
      .micro { font-family: ui-sans-serif, system-ui; font-size: 13px; fill: rgba(255,255,255,0.58); }
      .neon { fill: none; stroke: url(#gNeon); stroke-width: 6; stroke-linecap: round; stroke-linejoin: round; filter: url(#goo); opacity: 0.92; }
      .neon2 { fill: none; stroke: rgba(0,231,255,0.8); stroke-width: 2.6; stroke-linecap: round; opacity: 0.7; }
      .mist { fill: rgba(167,255,216,0.08); }
      .fire { fill: #ffcf4d; opacity: 0.85; }
    </style>
  </defs>

  <rect width="800" height="520" fill="url(#gMain)"/>
  <rect width="800" height="520" fill="url(#gGlow)"/>

  <circle cx="461" cy="188" r="153" fill="#ff4fd8" opacity="0.10"/>
  <circle cx="250" cy="171" r="149" fill="#00e7ff" opacity="0.10"/>

  <circle cx="355" cy="82" r="50" fill="#d8e7ff" opacity="0.16"/>
  <circle cx="367.5" cy="72.0" r="17.5" fill="#d8e7ff" opacity="0.07"/>

  <path class="mist" d="M0 202 C200 172 420 232 800 192 L800 242 C420 272 200 222 0 252 Z"/>
  <path class="mist" d="M0 302 C220 272 440 332 800 292 L800 347 C440 382 220 322 0 357 Z"/>

  <path d="M119 433 C53.60000000000001 402.25, 80.85 340.75, 119 310 C157.15 340.75, 184.39999999999998 402.25, 119 433 Z" fill="rgba(0,0,0,0.35)"/><path d="M187 437 C136.6 404.5, 157.6 339.5, 187 307 C216.4 339.5, 237.4 404.5, 187 437 Z" fill="rgba(0,0,0,0.35)"/><path d="M538 391 C492.4 350.5, 511.4 269.5, 538 229 C564.6 269.5, 583.6 350.5, 538 391 Z" fill="rgba(0,0,0,0.35)"/><path d="M135 440 C94.2 406.5, 111.2 339.5, 135 306 C158.8 339.5, 175.8 406.5, 135 440 Z" fill="rgba(0,0,0,0.35)"/>

  <path class="neon" d="M 129.0 262.0 L 174.1 262.0 L 219.2 262.0 L 264.2 262.0 L 309.3 262.0 L 354.4 262.0 L 399.5 262.0 L 444.6 262.0 L 489.7 262.0 L 534.8 262.0 L 579.8 262.0 L 624.9 262.0 L 670.0 262.0 "/>
  
  
  <path class="neon2" d="M70 90 L70 60 L100 60"/>
  <path class="neon2" d="M730 90 L730 60 L700 60"/>
  <path class="neon2" d="M70 430 L70 460 L100 460"/>
  <path class="neon2" d="M730 430 L730 460 L700 460"/>


  <circle class="fire" cx="436" cy="209" r="2.1"/><circle class="fire" cx="142" cy="340" r="2.8"/><circle class="fire" cx="414" cy="97" r="2.0"/><circle class="fire" cx="167" cy="217" r="2.0"/><circle class="fire" cx="287" cy="362" r="2.8"/><circle class="fire" cx="384" cy="274" r="3.0"/><circle class="fire" cx="109" cy="458" r="2.5"/><circle class="fire" cx="612" cy="274" r="1.7"/><circle class="fire" cx="373" cy="212" r="2.6"/><circle class="fire" cx="72" cy="138" r="2.2"/><circle class="fire" cx="256" cy="280" r="2.5"/><circle class="fire" cx="399" cy="211" r="2.7"/><circle class="fire" cx="538" cy="170" r="2.7"/><circle class="fire" cx="685" cy="195" r="2.8"/><circle class="fire" cx="373" cy="272" r="1.6"/><circle class="fire" cx="440" cy="329" r="2.4"/>

  <rect x="32" y="26" width="736" height="468" rx="26" class="frame" filter="url(#shadow)"/>

  <text x="56" y="66" class="micro">SwampHop • Sweetheart Bayou</text>
  <text x="56" y="484" class="tiny">Moonlit Mudslide</text>
  <text x="56" y="506" class="micro">Messy, honest, real.</text>

  <g filter="url(#swampNoise)"><rect width="800" height="520" fill="transparent"/></g>
</svg>
