<svg xmlns="http://www.w3.org/2000/svg" width="800" height="520" viewBox="0 0 800 520">

  <defs>
    <linearGradient id="gMain" x1="0" y1="0" x2="1" y2="1">
      <stop offset="0" stop-color="#07110e"/>
      <stop offset="1" stop-color="#0b1f18"/>
    </linearGradient>

    <radialGradient id="gGlow" cx="50%" cy="40%" r="70%">
      <stop offset="0" stop-color="#00e7ff" stop-opacity="0.22"/>
      <stop offset="0.55" stop-color="#ff4fd8" stop-opacity="0.10"/>
      <stop offset="1" stop-color="#07110e" stop-opacity="0"/>
    </radialGradient>

    <linearGradient id="gNeon" x1="0" y1="1" x2="1" y2="0">
      <stop offset="0" stop-color="#ff4fd8"/>
      <stop offset="1" stop-color="#2cff9a"/>
    </linearGradient>

    <filter id="shadow" x="-30%" y="-30%" width="160%" height="160%">
      <feDropShadow dx="0" dy="10" stdDeviation="18" flood-color="#000" flood-opacity="0.55"/>
    </filter>

    <filter id="swampNoise" x="-20%" y="-20%" width="140%" height="140%">
      <feTurbulence type="fractalNoise" baseFrequency="0.85" numOctaves="2" seed="1740" result="n"/>
      <feColorMatrix in="n" type="matrix"
        values="0.2 0 0 0 0
                0 0.35 0 0 0
                0 0 0.3 0 0
                0 0 0 0.35 0" result="t"/>
      <feComposite in="t" in2="SourceGraphic" operator="overlay"/>
    </filter>

    <filter id="goo" x="-20%" y="-20%" width="140%" height="140%">
      <feGaussianBlur in="SourceGraphic" stdDeviation="1.8" result="b"/>
      <feColorMatrix in="b" type="matrix"
        values="1 0 0 0 0
                0 1 0 0 0
                0 0 1 0 0
                0 0 0 18 -7" result="g"/>
      <feComposite in="g" in2="SourceGraphic" operator="atop"/>
    </filter>

    <style>
      .frame { fill: rgba(255,255,255,0.04); stroke: rgba(255,255,255,0.14); stroke-width: 2; }
      .tiny { font-family: ui-sans-serif, system-ui, -apple-system, Segoe UI, Roboto, Helvetica, Arial; font-size: 16px; fill: rgba(255,255,255,0.72); letter-spacing: 0.2px; }
      .micro { font-family: ui-sans-serif, system-ui; font-size: 13px; fill: rgba(255,255,255,0.58); }
      .neon { fill: none; stroke: url(#gNeon); stroke-width: 6; stroke-linecap: round; stroke-linejoin: round; filter: url(#goo); opacity: 0.92; }
      .neon2 { fill: none; stroke: rgba(0,231,255,0.8); stroke-width: 2.6; stroke-linecap: round; opacity: 0.7; }
      .mist { fill: rgba(167,255,216,0.08); }
      .fire { fill: #ffcf4d; opacity: 0.85; }
    </style>
  </defs>

  <rect width="800" height="520" fill="url(#gMain)"/>
  <rect width="800" height="520" fill="url(#gGlow)"/>

  <circle cx="305" cy="168" r="97" fill="#ff4fd8" opacity="0.10"/>
  <circle cx="637" cy="400" r="107" fill="#00e7ff" opacity="0.10"/>

  <circle cx="333" cy="150" r="60" fill="#d8e7ff" opacity="0.16"/>
  <circle cx="348.0" cy="138.0" r="21.0" fill="#d8e7ff" opacity="0.07"/>

  <path class="mist" d="M0 202 C200 172 420 232 800 192 L800 242 C420 272 200 222 0 252 Z"/>
  <path class="mist" d="M0 302 C220 272 440 332 800 292 L800 347 C440 382 220 322 0 357 Z"/>

  <path d="M662 463 C606.8 422.0, 629.8 340.0, 662 299 C694.2 340.0, 717.2 422.0, 662 463 Z" fill="rgba(0,0,0,0.35)"/><path d="M255 408 C197.4 372.75, 221.4 302.25, 255 267 C288.6 302.25, 312.6 372.75, 255 408 Z" fill="rgba(0,0,0,0.35)"/>

  
  <path class="neon" d="M 355 289.3189457265307 C 279.0431628204078 230.241405697959, 312.80175712244875 162.7242170938771, 355 204.92245997142828 C 397.19824287755125 162.7242170938771, 430.9568371795922 230.241405697959, 355 289.3189457265307 Z"/>
  
  <path class="neon2" d="M70 90 L70 60 L100 60"/>
  <path class="neon2" d="M730 90 L730 60 L700 60"/>
  <path class="neon2" d="M70 430 L70 460 L100 460"/>
  <path class="neon2" d="M730 430 L730 460 L700 460"/>


  <circle class="fire" cx="131" cy="315" r="2.4"/><circle class="fire" cx="630" cy="348" r="1.6"/><circle class="fire" cx="316" cy="454" r="3.1"/><circle class="fire" cx="191" cy="386" r="1.9"/><circle class="fire" cx="609" cy="312" r="2.0"/><circle class="fire" cx="406" cy="367" r="2.4"/><circle class="fire" cx="133" cy="321" r="3.0"/><circle class="fire" cx="505" cy="364" r="2.6"/><circle class="fire" cx="170" cy="82" r="2.9"/><circle class="fire" cx="442" cy="197" r="2.0"/><circle class="fire" cx="120" cy="425" r="3.2"/><circle class="fire" cx="464" cy="433" r="3.2"/><circle class="fire" cx="406" cy="413" r="2.9"/><circle class="fire" cx="125" cy="386" r="3.1"/><circle class="fire" cx="465" cy="397" r="3.1"/><circle class="fire" cx="482" cy="114" r="2.8"/><circle class="fire" cx="425" cy="424" r="2.3"/><circle class="fire" cx="537" cy="364" r="1.5"/>

  <rect x="32" y="26" width="736" height="468" rx="26" class="frame" filter="url(#shadow)"/>

  <text x="56" y="66" class="micro">SwampHop • Sweetheart Bayou</text>
  <text x="56" y="484" class="tiny">Drumline in the Fog</text>
  <text x="56" y="506" class="micro">Thump thump, heart heart.</text>

  <g filter="url(#swampNoise)"><rect width="800" height="520" fill="transparent"/></g>
</svg>
