<svg xmlns="http://www.w3.org/2000/svg" width="800" height="520" viewBox="0 0 800 520">

  <defs>
    <linearGradient id="gMain" x1="0" y1="0" x2="1" y2="1">
      <stop offset="0" stop-color="#07110e"/>
      <stop offset="1" stop-color="#0b1f18"/>
    </linearGradient>

    <radialGradient id="gGlow" cx="50%" cy="40%" r="70%">
      <stop offset="0" stop-color="#00e7ff" stop-opacity="0.22"/>
      <stop offset="0.55" stop-color="#ff4fd8" stop-opacity="0.10"/>
      <stop offset="1" stop-color="#07110e" stop-opacity="0"/>
    </radialGradient>

    <linearGradient id="gNeon" x1="0" y1="1" x2="1" y2="0">
      <stop offset="0" stop-color="#ff4fd8"/>
      <stop offset="1" stop-color="#2cff9a"/>
    </linearGradient>

    <filter id="shadow" x="-30%" y="-30%" width="160%" height="160%">
      <feDropShadow dx="0" dy="10" stdDeviation="18" flood-color="#000" flood-opacity="0.55"/>
    </filter>

    <filter id="swampNoise" x="-20%" y="-20%" width="140%" height="140%">
      <feTurbulence type="fractalNoise" baseFrequency="0.85" numOctaves="2" seed="1222" result="n"/>
      <feColorMatrix in="n" type="matrix"
        values="0.2 0 0 0 0
                0 0.35 0 0 0
                0 0 0.3 0 0
                0 0 0 0.35 0" result="t"/>
      <feComposite in="t" in2="SourceGraphic" operator="overlay"/>
    </filter>

    <filter id="goo" x="-20%" y="-20%" width="140%" height="140%">
      <feGaussianBlur in="SourceGraphic" stdDeviation="1.8" result="b"/>
      <feColorMatrix in="b" type="matrix"
        values="1 0 0 0 0
                0 1 0 0 0
                0 0 1 0 0
                0 0 0 18 -7" result="g"/>
      <feComposite in="g" in2="SourceGraphic" operator="atop"/>
    </filter>

    <style>
      .frame { fill: rgba(255,255,255,0.04); stroke: rgba(255,255,255,0.14); stroke-width: 2; }
      .tiny { font-family: ui-sans-serif, system-ui, -apple-system, Segoe UI, Roboto, Helvetica, Arial; font-size: 16px; fill: rgba(255,255,255,0.72); letter-spacing: 0.2px; }
      .micro { font-family: ui-sans-serif, system-ui; font-size: 13px; fill: rgba(255,255,255,0.58); }
      .neon { fill: none; stroke: url(#gNeon); stroke-width: 6; stroke-linecap: round; stroke-linejoin: round; filter: url(#goo); opacity: 0.92; }
      .neon2 { fill: none; stroke: rgba(0,231,255,0.8); stroke-width: 2.6; stroke-linecap: round; opacity: 0.7; }
      .mist { fill: rgba(167,255,216,0.08); }
      .fire { fill: #ffcf4d; opacity: 0.85; }
    </style>
  </defs>

  <rect width="800" height="520" fill="url(#gMain)"/>
  <rect width="800" height="520" fill="url(#gGlow)"/>

  <circle cx="132" cy="301" r="152" fill="#ff4fd8" opacity="0.10"/>
  <circle cx="411" cy="413" r="100" fill="#00e7ff" opacity="0.10"/>

  <circle cx="672" cy="132" r="51" fill="#d8e7ff" opacity="0.16"/>
  <circle cx="684.8" cy="121.8" r="17.8" fill="#d8e7ff" opacity="0.07"/>

  <path class="mist" d="M0 240 C200 210 420 270 800 230 L800 280 C420 310 200 260 0 290 Z"/>
  <path class="mist" d="M0 340 C220 310 440 370 800 330 L800 385 C440 420 220 360 0 395 Z"/>

  <path d="M86 377 C32.6 338.5, 54.85 261.5, 86 223 C117.15 261.5, 139.4 338.5, 86 377 Z" fill="rgba(0,0,0,0.35)"/><path d="M330 408 C274.8 368.25, 297.8 288.75, 330 249 C362.2 288.75, 385.2 368.25, 330 408 Z" fill="rgba(0,0,0,0.35)"/><path d="M608 365 C569.0 333.0, 585.25 269.0, 608 237 C630.75 269.0, 647.0 333.0, 608 365 Z" fill="rgba(0,0,0,0.35)"/>

  
  <path class="neon" d="M 319 298.60969543951427 C 242.1709136814572 238.85373941398097, 276.3171742674762 170.56121824194292, 319 213.2440439744667 C 361.6828257325238 170.56121824194292, 395.8290863185428 238.85373941398097, 319 298.60969543951427 Z"/>
  
  <path class="neon2" d="M70 90 L70 60 L100 60"/>
  <path class="neon2" d="M730 90 L730 60 L700 60"/>
  <path class="neon2" d="M70 430 L70 460 L100 460"/>
  <path class="neon2" d="M730 430 L730 460 L700 460"/>


  <circle class="fire" cx="353" cy="404" r="2.6"/><circle class="fire" cx="314" cy="188" r="1.7"/><circle class="fire" cx="524" cy="215" r="2.1"/><circle class="fire" cx="533" cy="340" r="2.5"/><circle class="fire" cx="235" cy="438" r="3.1"/><circle class="fire" cx="93" cy="161" r="2.4"/><circle class="fire" cx="324" cy="202" r="2.0"/><circle class="fire" cx="311" cy="295" r="2.5"/><circle class="fire" cx="218" cy="205" r="2.4"/><circle class="fire" cx="139" cy="130" r="2.7"/><circle class="fire" cx="120" cy="429" r="2.9"/>

  <rect x="32" y="26" width="736" height="468" rx="26" class="frame" filter="url(#shadow)"/>

  <text x="56" y="66" class="micro">SwampHop • Sweetheart Bayou</text>
  <text x="56" y="484" class="tiny">Gator Guard</text>
  <text x="56" y="506" class="micro">Protected by swamp royalty.</text>

  <g filter="url(#swampNoise)"><rect width="800" height="520" fill="transparent"/></g>
</svg>
