<svg xmlns="http://www.w3.org/2000/svg" viewBox="0 0 900 600" style="background:#0f1a0f">
  <rect width="900" height="600" fill="#1a2e1a"/>
  <defs>
    <pattern id="swampPatternSHS22" patternUnits="userSpaceOnUse" width="50" height="50">
      <circle cx="25" cy="25" r="1" fill="#8b9a5b" opacity="0.1"/>
    </pattern>
  </defs>
  <rect width="900" height="600" fill="url(#swampPatternSHS22)"/>
  
  <!-- Main border -->
  <path d="M 50 50 Q 40 40, 50 40 L 850 40 Q 860 40, 850 50 L 850 550 Q 860 560, 850 560 L 50 560 Q 40 560, 50 550 Z" fill="none" stroke="#d4af37" stroke-width="3"/>
  
  <!-- Side decorative borders -->
  <path d="M 100 100 Q 90 90, 100 90 L 300 90 Q 310 90, 300 100 L 300 500 Q 310 510, 300 510 L 100 510 Q 90 510, 100 500 Z" fill="none" stroke="#d4af37" stroke-width="2" opacity="0.5"/>
  <path d="M 600 100 Q 590 90, 600 90 L 800 90 Q 810 90, 800 100 L 800 500 Q 810 510, 800 510 L 600 510 Q 590 510, 600 500 Z" fill="none" stroke="#d4af37" stroke-width="2" opacity="0.5"/>
  
  <!-- Top heart - centered -->
  <path d="M 450 100 L 470 140 L 510 150 L 480 180 L 490 220 L 450 200 L 410 220 L 420 180 L 390 150 L 430 140 Z" fill="#d4af37" opacity="0.2"/>
  
  <!-- Side hearts -->
  <path d="M 250 100 L 270 140 L 310 150 L 280 180 L 290 220 L 250 200 L 210 220 L 220 180 L 190 150 L 230 140 Z" fill="#d4af37" opacity="0.15"/>
  <path d="M 650 100 L 670 140 L 710 150 L 680 180 L 690 220 L 650 200 L 610 220 L 620 180 L 590 150 L 630 140 Z" fill="#d4af37" opacity="0.15"/>
  
  <!-- Bottom heart - centered -->
  <path d="M 450 380 L 470 420 L 510 430 L 480 460 L 490 500 L 450 480 L 410 500 L 420 460 L 390 430 L 430 420 Z" fill="#d4af37" opacity="0.4"/>
  
  <!-- Main text -->
  <text x="450" y="280" font-family="serif" font-size="36" fill="#8b9a5b" text-anchor="middle" font-weight="bold">Loyalty Locked In</text>
  <text x="450" y="550" font-family="serif" font-size="14" fill="#e8d5b7" text-anchor="middle" opacity="0.6">HAPPY VALENTINE'S</text>
</svg>