<svg xmlns="http://www.w3.org/2000/svg" viewBox="0 0 900 600">
  <defs>
    <linearGradient id="bg" x1="0" y1="0" x2="1" y2="1">
      <stop offset="0" stop-color="#0a0c14"/>
      <stop offset="0.4" stop-color="#0e111c"/>
      <stop offset="0.7" stop-color="#12162a"/>
      <stop offset="1" stop-color="#080a10"/>
    </linearGradient>
    <radialGradient id="centerGlow" cx="50%" cy="45%" r="55%">
      <stop offset="0%" stop-color="rgba(72,98,120,.14)"/>
      <stop offset="50%" stop-color="rgba(40,52,72,.08)"/>
      <stop offset="100%" stop-color="rgba(12,14,24,0)"/>
    </radialGradient>
    <linearGradient id="cardFill" x1="0" y1="0" x2="0" y2="1">
      <stop offset="0" stop-color="rgba(24,30,48,.94)"/>
      <stop offset="0.5" stop-color="rgba(18,22,38,.96)"/>
      <stop offset="1" stop-color="rgba(10,12,26,.98)"/>
    </linearGradient>
    <linearGradient id="accentLine" x1="0" y1="0" x2="1" y2="0">
      <stop offset="0" stop-color="rgba(100,140,180,.4)"/>
      <stop offset="0.5" stop-color="rgba(160,200,240,.65)"/>
      <stop offset="1" stop-color="rgba(100,140,180,.4)"/>
    </linearGradient>
    <linearGradient id="nodeGrad" x1="0" y1="1" x2="0" y2="0">
      <stop offset="0" stop-color="rgba(80,120,160,.5)"/>
      <stop offset="1" stop-color="rgba(140,180,220,.85)"/>
    </linearGradient>
    <filter id="shadow" x="-40%" y="-40%" width="180%" height="180%">
      <feDropShadow dx="0" dy="14" stdDeviation="10" flood-opacity=".38"/>
    </filter>
    <filter id="softGlow" x="-20%" y="-20%" width="140%" height="140%">
      <feGaussianBlur in="SourceGraphic" stdDeviation="1.5" result="blur"/>
      <feMerge><feMergeNode in="blur"/><feMergeNode in="SourceGraphic"/></feMerge>
    </filter>
    <pattern id="grain" width="12" height="12" patternUnits="userSpaceOnUse">
      <circle cx="1.5" cy="1.5" r="0.8" fill="rgba(255,255,255,0.03)"/>
    </pattern>
    <pattern id="grid" width="32" height="32" patternUnits="userSpaceOnUse">
      <path d="M0 32V0h32" fill="none" stroke="rgba(255,255,255,.03)" stroke-width=".6"/>
    </pattern>
  </defs>
  <rect width="900" height="600" fill="url(#bg)"/>
  <rect x="40" y="40" width="820" height="520" rx="42" fill="url(#cardFill)" filter="url(#shadow)" stroke="rgba(255,255,255,.08)"/>
  <rect x="40" y="40" width="820" height="520" rx="42" fill="url(#centerGlow)"/>
  <rect x="40" y="40" width="820" height="520" rx="42" fill="url(#grain)" opacity=".5"/>
  <rect x="48" y="48" width="804" height="504" rx="36" fill="none" stroke="rgba(255,255,255,.06)" stroke-width="1"/>
  <!-- Rule lines -->
  <path d="M92 92h716" stroke="url(#accentLine)" stroke-width="2.5" stroke-linecap="round" stroke-dasharray="8 12" opacity="0.85"/>
  <path d="M92 512h716" stroke="url(#accentLine)" stroke-width="2.5" stroke-linecap="round" stroke-dasharray="8 12" opacity="0.85"/>
  <!-- Title bar -->
  <rect x="96" y="122" width="520" height="70" rx="22" fill="rgba(0,0,0,.4)" stroke="rgba(255,255,255,.08)"/>
  <text x="118" y="170" font-family="Arial Black, Arial" font-size="32" fill="rgba(255,252,248,.97)">To Our Team</text>
  <!-- Central motif: gratitude / everyone ? many nodes, one circle (community) -->
  <g transform="translate(450 300)">
    <!-- Outer ring: many small dots (everyone) -->
    <g filter="url(#softGlow)" opacity="0.9">
      <circle r="140" fill="none" stroke="rgba(120,160,200,.12)" stroke-width="1"/>
      <circle r="120" fill="none" stroke="rgba(120,160,200,.08)" stroke-width="1"/>
    </g>
    <g fill="url(#nodeGrad)">
      <!-- 24 nodes around the circle -->
      <circle r="4" transform="rotate(0) translate(0,-118)"/>
      <circle r="4" transform="rotate(15) translate(0,-118)"/>
      <circle r="4" transform="rotate(30) translate(0,-118)"/>
      <circle r="4" transform="rotate(45) translate(0,-118)"/>
      <circle r="4" transform="rotate(60) translate(0,-118)"/>
      <circle r="4" transform="rotate(75) translate(0,-118)"/>
      <circle r="4" transform="rotate(90) translate(0,-118)"/>
      <circle r="4" transform="rotate(105) translate(0,-118)"/>
      <circle r="4" transform="rotate(120) translate(0,-118)"/>
      <circle r="4" transform="rotate(135) translate(0,-118)"/>
      <circle r="4" transform="rotate(150) translate(0,-118)"/>
      <circle r="4" transform="rotate(165) translate(0,-118)"/>
      <circle r="4" transform="rotate(180) translate(0,-118)"/>
      <circle r="4" transform="rotate(195) translate(0,-118)"/>
      <circle r="4" transform="rotate(210) translate(0,-118)"/>
      <circle r="4" transform="rotate(225) translate(0,-118)"/>
      <circle r="4" transform="rotate(240) translate(0,-118)"/>
      <circle r="4" transform="rotate(255) translate(0,-118)"/>
      <circle r="4" transform="rotate(270) translate(0,-118)"/>
      <circle r="4" transform="rotate(285) translate(0,-118)"/>
      <circle r="4" transform="rotate(300) translate(0,-118)"/>
      <circle r="4" transform="rotate(315) translate(0,-118)"/>
      <circle r="4" transform="rotate(330) translate(0,-118)"/>
      <circle r="4" transform="rotate(345) translate(0,-118)"/>
    </g>
    <!-- Inner: single soft circle (together) -->
    <circle r="52" fill="rgba(60,90,120,.2)" stroke="rgba(140,180,220,.35)" stroke-width="2"/>
    <circle r="44" fill="rgba(40,70,100,.15)" stroke="rgba(160,200,240,.25)" stroke-width="1"/>
    <!-- Center accent -->
    <circle r="8" fill="rgba(180,210,240,.4)" stroke="rgba(200,230,255,.5)" stroke-width="1.5"/>
  </g>
  <!-- Corner detail: subtle flourishes -->
  <path d="M96 180 L96 168 L108 168" fill="none" stroke="rgba(160,200,240,.2)" stroke-width="1.2" stroke-linecap="round"/>
  <path d="M804 180 L816 180 L816 168" fill="none" stroke="rgba(160,200,240,.2)" stroke-width="1.2" stroke-linecap="round"/>
  <path d="M96 408 L96 420 L108 420" fill="none" stroke="rgba(160,200,240,.15)" stroke-width="1.2" stroke-linecap="round"/>
  <path d="M804 408 L816 408 L816 420" fill="none" stroke="rgba(160,200,240,.15)" stroke-width="1.2" stroke-linecap="round"/>
  <!-- Right-side accent (pack consistency) -->
  <g opacity=".88">
    <circle cx="760" cy="152" r="44" fill="rgba(80,140,200,.1)" stroke="rgba(120,180,240,.6)" stroke-width="2.5"/>
    <path d="M732 152h56" stroke="rgba(160,200,240,.7)" stroke-width="6" stroke-linecap="round"/>
    <path d="M760 124v56" stroke="rgba(160,200,240,.7)" stroke-width="6" stroke-linecap="round"/>
  </g>
  <!-- Footer -->
  <text x="96" y="540" font-family="Arial, sans-serif" font-size="17" fill="rgba(130,155,190,.92)">TFP · Founder Pack · Demo</text>
</svg>
