<svg xmlns="http://www.w3.org/2000/svg" viewBox="0 0 256 256">
  <defs>
    <linearGradient id="a" x1="0" x2="1">
      <stop offset="0" stop-color="#ff4fd8"/>
      <stop offset="1" stop-color="#8a5cff"/>
    </linearGradient>
    <linearGradient id="b" x1="0" x2="1">
      <stop offset="0" stop-color="#00e5ff"/>
      <stop offset="1" stop-color="#7cff6b"/>
    </linearGradient>
  </defs>
  <g transform-origin="128 128">
    <animateTransform attributeName="transform" type="scale" values="1;1.03;1" dur="3s" repeatCount="indefinite"/>
    <path fill="url(#a)"
    d="M112 190s-52-31-67-62c-11-22 2-49 26-54 14-3 29 2 37 13
       8-11 23-16 37-13 24 5 37 32 26 54-15 31-67 62-67 62z"/>
  <g transform-origin="128 128">
    <animateTransform attributeName="transform" type="scale" values="1;1.03;1" dur="3s" repeatCount="indefinite"/>
    <path fill="url(#b)" opacity="0.92"
    d="M168 214s-48-28-62-57c-10-20 2-45 24-50 13-3 27 2 34 12
       7-10 21-15 34-12 22 5 34 30 24 50-14 29-62 57-62 57z"/>
  </g>
</svg>
