<svg xmlns="http://www.w3.org/2000/svg" viewBox="0 0 256 256">
  <defs>
    <linearGradient id="h" x1="0" x2="1">
      <stop offset="0" stop-color="#ff6bd6"/>
      <stop offset="1" stop-color="#00e5ff"/>
    </linearGradient>
  </defs>
  <path fill="url(#h)"
    d="M128 212s-67-40-86-80c-14-29 3-64 35-71 19-4 40 2 51 17
       11-15 32-21 51-17 32 7 49 42 35 71-19 40-86 80-86 80z"/>
  <g fill="#ffffff" opacity="0.95">
    <path d="M196 56l6 14 14 6-14 6-6 14-6-14-14-6 14-6z"/>
    <path d="M58 120l5 11 11 5-11 5-5 11-5-11-11-5 11-5z"/>
    <path d="M186 146l4 9 9 4-9 4-4 9-4-9-9-4 9-4z"/>
  </g>
</svg>
